<ttFont>
<head>
    <!-- Most of this table will be recalculated by the compiler -->
    <tableVersion value="1.0"/>
    <fontRevision value="1.0"/>
    <checkSumAdjustment value="0x6908cbef"/>
    <magicNumber value="0x5f0f3cf5"/>
    <flags value="00000000 00000011"/>
    <unitsPerEm value="1000"/>
    <created value="Tue Feb  2 15:13:20 2016"/>
    <modified value="Tue Feb  2 15:13:20 2016"/>
    <xMin value="-607"/>
    <yMin value="-915"/>
    <xMax value="1943"/>
    <yMax value="1635"/>
    <macStyle value="00000000 00000000"/>
    <lowestRecPPEM value="3"/>
    <fontDirectionHint value="2"/>
    <indexToLocFormat value="0"/>
    <glyphDataFormat value="0"/>
  </head>
          <CharString index="0">
            35 -11 7 6 -30 callgsubr
            -8 4 -34 13 vhcurveto
            -137 50 rlineto
            4 -10 -10 1 -12 hhcurveto
            -12 -1 -15 -3 -12 -5 -128 -46 rcurveline
            -32 -13 -9 -4 192 callsubr
            7 -6 34 11 vhcurveto
            return
          </CharString>
          <CharString index="1">
            hlineto
            -104 callgsubr
            return
          </CharString>
          <CharString index="2">
            212 callsubr
            -87 227 rlineto
            23 -8 -16 10 -26 hhcurveto
            -269 hlineto
            -27 -16 -10 -23 -8 hvcurveto
            -87 -227 rlineto
            -27 -70 -12 -50 -40 vvcurveto
            -264 -81 callsubr
            return
          </CharString>
          <CharString index="3">
            vlineto
            -102 callsubr
            return
          </CharString>
          <CharString index="4">
            -79 callgsubr
            127 -107 callgsubr
            -158 146 callsubr
            return
          </CharString>
          <CharString index="5">
            -25 11 -87 callsubr
            return
          </CharString>
          <CharString index="6">
            146 callgsubr
            114 callsubr
            7 callgsubr
            -11 -63 callgsubr
            11 -10 23 vhcurveto
            return
          </CharString>
          <CharString index="7">
            -17 callsubr
            -91 -45 callsubr
            196 callgsubr
            19 vhcurveto
            21 vlineto
            24 -8 7 -21 vhcurveto
            -96 hlineto
            -25 -11 -11 -25 hvcurveto
            -44 160 callsubr
            return
          </CharString>
          <CharString index="8">
            -82 callgsubr
            -349 -43 rlineto
            -25 -3 -11 -8 -25 vvcurveto
            -96 vlineto
            -23 11 -13 23 3 vhcurveto
            return
          </CharString>
          <CharString index="9">
            224 callsubr
            -36 8 -4 34 -13 vhcurveto
            137 -50 rlineto
            -4 10 10 -1 12 hhcurveto
            12 1 15 3 12 5 128 46 rcurveline
            15 callgsubr
            -27 callgsubr
            return
          </CharString>
          <CharString index="10">
            81 callgsubr
            -73 callsubr
            -280 60 callgsubr
            -74 callsubr
            return
          </CharString>
          <CharString index="11">
            255 -80 callsubr
            330 vlineto
            171 -207 rlineto
            -123 vlineto
            -25 11 -11 25 vhcurveto
            150 hlineto
            25 11 11 25 hvcurveto
            648 -35 callsubr
            -194 -56 callsubr
            return
          </CharString>
          <CharString index="12">
            679 189 rmoveto
            341 120 callgsubr
            -341 vlineto
            -2 callgsubr
            250 250 162 callsubr
            -394 36 -83 callgsubr
            return
          </CharString>
          <CharString index="13">
            hlineto
            -92 callgsubr
            return
          </CharString>
          <CharString index="14">
            -11 11 -25 return
          </CharString>
          <CharString index="15">
            -105 callgsubr
            -77 callsubr
            return
          </CharString>
          <CharString index="16">
            -66 callgsubr
            -349 43 rlineto
            -23 3 -11 -13 -23 vvcurveto
            -96 vlineto
            -25 11 -8 25 -3 vhcurveto
            return
          </CharString>
          <CharString index="17">
            -67 callgsubr
            -72 callsubr
            return
          </CharString>
          <CharString index="18">
            -106 callsubr
            -58 callsubr
            return
          </CharString>
          <CharString index="19">
            -11 -11 -25 return
          </CharString>
          <CharString index="20">
            -11 25 vhcurveto
            return
          </CharString>
          <CharString index="21">
            178 0 473 -473 720 -510 263 363 callgsubr
            264 221 hintmask 01011000
            586 720 rmoveto
            -38 callgsubr
            -368 vlineto
            hintmask 10011000
            -58 126 rlineto
            23 -11 -16 8 -26 hhcurveto
            -42 hlineto
            -26 -16 -8 -23 -11 hvcurveto
            -58 -126 rlineto
            hintmask 01011000
            368 -107 callgsubr
            -154 -106 callsubr
            -386 vlineto
            -43 0 -32 18 -49 vhcurveto
            50 -138 rlineto
            -21 7 15 -15 22 hhcurveto
            132 hlineto
            21 15 10 20 6 hvcurveto
            hintmask 00111000
            47 163 rlineto
            13 4 6 4 8 hhcurveto
            9 hlineto
            8 6 -4 -13 4 hvcurveto
            hintmask 01011000
            46 -163 rlineto
            -21 6 18 -9 22 hhcurveto
            133 hlineto
            21 12 16 20 7 hvcurveto
            50 136 rlineto
            18 49 0 32 43 vvcurveto
            388 -107 callgsubr
            return
          </CharString>
          <CharString index="22">
            -101 callgsubr
            -70 callsubr
            return
          </CharString>
          <CharString index="23">
            23 9 13 7 25 vvcurveto
            101 vlineto
            25 -12 8 -24 -7 vhcurveto
            -59 -18 -4 -3 -88 13 rrcurveto
            return
          </CharString>
          <CharString index="24">
            hlineto
            -25 -11 -73 callgsubr
            return
          </CharString>
          <CharString index="25">
            76 49 42 86 hvcurveto
            152 vlineto
            30 4 callgsubr
            -30 hvcurveto
            -109 55 callgsubr
            -34 vlineto
            -22 9 -9 21 vhcurveto
            endchar
          </CharString>
          <CharString index="26">
            -71 callgsubr
            25 11 11 25 hvcurveto
            return
          </CharString>
          <CharString index="27">
            hmoveto
            -106 callgsubr
            return
          </CharString>
          <CharString index="28">
            594 36 rmoveto
            49 callgsubr
            202 20 callsubr
            107 21 callsubr
            151 callsubr
            221 -85 callsubr
            -254 14 callgsubr
            254 -101 callgsubr
            return
          </CharString>
          <CharString index="29">
            -11 callgsubr
            -273 68 callgsubr
            28 253 20 callsubr
            95 -69 callgsubr
            -253 17 hlineto
            91 callsubr
            273 -29 callgsubr
            -312 -14 callgsubr
            -271 -28 callgsubr
            return
          </CharString>
          <CharString index="30">
            -155 -106 callsubr
            return
          </CharString>
          <CharString index="31">
            548 -40 callsubr
            -201 hlineto
            -42 -19 15 33 hvcurveto
            238 vlineto
            34 19 16 42 -15 callgsubr
            -244 hlineto
            -168 -78 -65 -140 hvcurveto
            -311 94 callsubr
            return
          </CharString>
          <CharString index="32">
            861 -100 callsubr
            return
          </CharString>
          <CharString index="33">
            -112 61 -40 94 -14 vhcurveto
            150 -21 rlineto
            17 -2 9 -9 -23 vvcurveto
            -16 -9 -13 -17 vhcurveto
            -269 -29 callsubr
            return
          </CharString>
          <CharString index="34">
            105 vlineto
            112 -62 40 -94 14 vhcurveto
            -149 20 rlineto
            -17 2 -10 12 18 vvcurveto
            18 10 12 17 vhcurveto
            233 -87 callgsubr
            return
          </CharString>
          <CharString index="35">
            -347 -106 callsubr
            -93 -104 callsubr
            return
          </CharString>
          <CharString index="36">
            rmoveto
            226 callgsubr
            -152 87 callgsubr
            -416 vlineto
            -27 -12 -20 -62 -61 130 callgsubr
            416 10 callsubr
            -122 60 -82 240 240 162 callsubr
            return
          </CharString>
          <CharString index="37">
            117 -107 callgsubr
            return
          </CharString>
          <CharString index="38">
            rmoveto
            -22 -6 16 -12 23 hhcurveto
            106 hlineto
            25 5 12 24 6 hvcurveto
            53 207 rlineto
            22 6 -16 12 -23 hhcurveto
            -106 hlineto
            -25 -5 -12 -24 -6 hvcurveto
            -313 -207 rmoveto
            -22 -6 16 -12 23 hhcurveto
            106 hlineto
            25 5 12 24 6 hvcurveto
            53 207 rlineto
            22 6 -16 12 -23 hhcurveto
            -106 hlineto
            -25 -5 -12 -24 -6 hvcurveto
            endchar
          </CharString>
          <CharString index="39">
            -35 66 callsubr
            -71 -70 -89 callgsubr
            -2 callgsubr
            248 vhcurveto
            return
          </CharString>
          <CharString index="40">
            81 callgsubr
            95 vlineto
            112 -62 35 -94 14 vhcurveto
            -191 10 rlineto
            -17 2 -10 7 107 callgsubr
            109 99 callsubr
            -95 vlineto
            -112 61 -35 94 -14 vhcurveto
            192 -11 rlineto
            17 -2 9 -4 106 callsubr
            -107 vlineto
            -25 11 -11 25 vhcurveto
            return
          </CharString>
          <CharString index="41">
            -113 571 -101 callsubr
            return
          </CharString>
          <CharString index="42">
            -120 vlineto
            -25 14 -87 callsubr
            151 -101 callgsubr
            244 vlineto
            69 -10 15 -29 76 vhcurveto
            -87 207 rlineto
            25 -9 -15 8 -26 hhcurveto
            -259 hlineto
            -26 -16 -8 -25 -9 hvcurveto
            -77 -207 rlineto
            -29 -76 -10 -15 -69 vvcurveto
            -244 184 callgsubr
            return
          </CharString>
          <CharString index="43">
            3 96 callsubr
            152 callsubr
            211 234 -110 109 hintmask 11101000
            95 callgsubr
            hintmask 11011000
            491 147 20 callsubr
            hintmask 11101000
            -34 callsubr
            hintmask 11011000
            67 callsubr
            hintmask 11101000
            133 callgsubr
            72 -362 78 callgsubr
            hintmask 11100100
            86 -13 hlineto
            -15 -8 -9 -15 vhcurveto
            -59 hlineto
            -21 -9 -9 -21 hvcurveto
            -34 vlineto
            -22 9 -9 21 vhcurveto
            endchar
          </CharString>
          <CharString index="44">
            742 -15 rmoveto
            212 52 217 callgsubr
            495 -107 callgsubr
            -152 83 callsubr
            -10 -20 -58 -57 227 callgsubr
            -93 callsubr
            vhcurveto
            -152 hlineto
            -25 -11 209 callsubr
            -57 -58 227 callgsubr
            -10 11 -26 vhcurveto
            -152 150 callsubr
            52 -82 212 102 65 19 33 40 vhcurveto
            -33 40 65 -19 102 hhcurveto
            return
          </CharString>
          <CharString index="45">
            rmoveto
            23 6 16 0 23 -6 return
          </CharString>
          <CharString index="46">
            225 callgsubr
            226 callgsubr
            -117 hlineto
            -26 -10 252 callsubr
            -7 -13 -26 -26 -6 255 callgsubr
            -93 callsubr
            vhcurveto
            -117 hlineto
            -25 -11 252 callsubr
            -6 -13 -26 -26 -7 255 callgsubr
            -10 11 -26 vhcurveto
            -117 172 callsubr
            48 -82 151 75 47 18 32 28 vhcurveto
            -32 27 47 -18 75 hhcurveto
            return
          </CharString>
          <CharString index="47">
            -42 callgsubr
            -62 7 -20 31 -41 vhcurveto
            return
          </CharString>
          <CharString index="48">
            -105 callsubr
            219 callsubr
            rrcurveto
            return
          </CharString>
          <CharString index="49">
            -648 vlineto
            -25 11 return
          </CharString>
          <CharString index="50">
            vlineto
            -55 callsubr
            return
          </CharString>
          <CharString index="51">
            222 rlineto
            20 -17 -16 7 -26 hhcurveto
            -104 -97 callgsubr
            return
          </CharString>
          <CharString index="52">
            -102 callsubr
            155 -101 callgsubr
            return
          </CharString>
          <CharString index="53">
            121 callgsubr
            -124 -72 callgsubr
            return
          </CharString>
          <CharString index="54">
            vlineto
            108 callsubr
            return
          </CharString>
          <CharString index="55">
            129 callsubr
            84 96 callgsubr
            -205 15 hlineto
            16 4 1 15 5 vhcurveto
            98 31 rlineto
            70 21 42 33 73 vvcurveto
            68 vlineto
            77 -45 42 -82 vhcurveto
            -212 hlineto
            123 callsubr
            156 hlineto
            15 0 5 -4 0 -15 0 -15 -5 -6 -5 flex1
            -96 -30 rlineto
            -66 -20 -47 -26 -111 vvcurveto
            -124 -41 callsubr
            return
          </CharString>
          <CharString index="56">
            226 -119 177 hintmask 11101000
            -7 callgsubr
            hintmask 11100100
            -58 callgsubr
            hintmask 11101000
            10 callgsubr
            hintmask 11010000
            return
          </CharString>
          <CharString index="57">
            103 0 189 76 179 85 191 hstem
            79 224 169 226 vstem
            452 hmoveto
            189 57 83 121 364 callgsubr
            121 -57 83 -189 vhcurveto
            -337 -106 callsubr
            -240 -23 142 callsubr
            -107 -40 callgsubr
            23 -229 142 callgsubr
            188 189 rmoveto
            76 41 vlineto
            103 callsubr
            -41 85 122 242 callsubr
            -243 241 callsubr
            endchar
          </CharString>
          <CharString index="58">
            rmoveto
            -81 callgsubr
            -243 hmoveto
            19 callgsubr
          </CharString>
          <CharString index="59">
            -129 -25 callsubr
            455 vlineto
            121 -53 83 -249 -248 -52 245 callsubr
            -455 -81 callsubr
            return
          </CharString>
          <CharString index="60">
            55 callsubr
            -44 callgsubr
            return
          </CharString>
          <CharString index="61">
            vvcurveto
            192 -107 callgsubr
            -149 -106 callsubr
            -164 vlineto
            return
          </CharString>
          <CharString index="62">
            -59 callgsubr
            -19 return
          </CharString>
          <CharString index="63">
            hstem
            41 217 137 229 vstem
            624 189 rmoveto
            495 10 callsubr
            -27 -8 -20 -58 -62 -9 -21 callgsubr
            57 -82 233 235 58 196 callsubr
            return
          </CharString>
          <CharString index="64">
            224 -113 177 hintmask 11101000
            373 -15 rmoveto
            248 61 217 callgsubr
            416 vlineto
            hintmask 11100100
            -42 callsubr
            hintmask 11101000
            -68 callsubr
            return
          </CharString>
          <CharString index="65">
            49 25 15 40 51 -50 callgsubr
            -19 -7 -10 -33 vhcurveto
            return
          </CharString>
          <CharString index="66">
            vlineto
            -18 8 -8 18 vhcurveto
            return
          </CharString>
          <CharString index="67">
            -80 callsubr
            119 -107 callgsubr
            return
          </CharString>
          <CharString index="68">
            26 -11 10 -25 return
          </CharString>
          <CharString index="69">
            -65 callsubr
            25 11 11 25 hvcurveto
            return
          </CharString>
          <CharString index="70">
            754 -80 callsubr
            -11 callgsubr
            -330 76 261 callsubr
            95 264 callgsubr
            67 330 hlineto
            25 11 11 25 hvcurveto
            113 vlineto
            25 -11 11 -25 vhcurveto
            -518 -53 callgsubr
            return
          </CharString>
          <CharString index="71">
            358 126 callgsubr
            169 return
          </CharString>
          <CharString index="72">
            -36 callgsubr
            -213 vlineto
            return
          </CharString>
          <CharString index="73">
            -80 callgsubr
            50 callsubr
            return
          </CharString>
          <CharString index="74">
            93 327 callgsubr
            69 227 164 226 hintmask 01011000
            260 -80 callsubr
            hintmask 00111000
            359 callgsubr
            hintmask 01011000
            79 callsubr
            hintmask 10011000
            221 callsubr
            hintmask 01011000
            102 233 rlineto
            21 9 -8 12 -23 hhcurveto
            -154 hlineto
            -26 -14 -9 -24 -10 hvcurveto
            hintmask 10011000
            -103 -233 rlineto
            -40 hlineto
            hintmask 01011000
            217 callsubr
            endchar
          </CharString>
          <CharString index="75">
            -608 -104 callsubr
            return
          </CharString>
          <CharString index="76">
            -62 callsubr
            rrcurveto
            hintmask 11101000
            -86 callgsubr
          </CharString>
          <CharString index="77">
            178 0 473 -473 720 -510 263 287 187 363 callgsubr
            -105 216 callsubr
            -94 221 hintmask 01011001
            586 720 rmoveto
            -38 callgsubr
            -368 vlineto
            hintmask 10011001
            -58 126 rlineto
            23 -11 -16 8 -26 hhcurveto
            -42 hlineto
            -26 -16 -8 -23 -11 hvcurveto
            -58 -126 rlineto
            hintmask 01011001
            368 -107 callgsubr
            -154 -106 callsubr
            -386 vlineto
            -43 0 -32 18 -49 vhcurveto
            50 -138 rlineto
            -21 7 15 -15 22 hhcurveto
            132 hlineto
            21 15 10 20 6 hvcurveto
            hintmask 00111001
            47 163 rlineto
            13 4 6 4 8 hhcurveto
            9 hlineto
            8 6 -4 -13 4 hvcurveto
            hintmask 01011001
            46 -163 rlineto
            -21 6 18 -9 22 hhcurveto
            133 hlineto
            21 12 16 20 7 hvcurveto
            50 136 rlineto
            18 49 0 32 43 vvcurveto
            388 -107 callgsubr
            -124 282 callsubr
            hintmask 01010110
            137 callsubr
          </CharString>
          <CharString index="78">
            -106 callsubr
            -117 -104 callsubr
            return
          </CharString>
          <CharString index="79">
            -119 -104 callsubr
            return
          </CharString>
          <CharString index="80">
            226 hintmask 10110010
            100 callgsubr
            hintmask 11110010
            122 -60 83 -250 -250 -61 288 callsubr
            61 -82 250 vhcurveto
            hintmask 10110010
            117 callgsubr
            hintmask 11110010
            -84 callgsubr
            vhcurveto
            hintmask 10110010
            280 callgsubr
            hvcurveto
            hintmask 10101100
            return
          </CharString>
          <CharString index="81">
            178 0 473 -473 720 -510 263 328 176 363 callgsubr
            264 221 hintmask 01011100
            586 720 rmoveto
            -38 callgsubr
            -368 vlineto
            hintmask 10011100
            -58 126 rlineto
            23 -11 -16 8 -26 hhcurveto
            -42 hlineto
            -26 -16 -8 -23 -11 hvcurveto
            -58 -126 rlineto
            hintmask 01011100
            368 -107 callgsubr
            -154 -106 callsubr
            -386 vlineto
            -43 0 -32 18 -49 vhcurveto
            50 -138 rlineto
            -21 7 15 -15 22 hhcurveto
            132 hlineto
            21 15 10 20 6 hvcurveto
            hintmask 00111100
            47 163 rlineto
            13 4 6 4 8 hhcurveto
            9 hlineto
            8 6 -4 -13 4 hvcurveto
            hintmask 01011100
            46 -163 rlineto
            -21 6 18 -9 22 hhcurveto
            133 hlineto
            21 12 16 20 7 hvcurveto
            50 136 rlineto
            18 49 0 32 43 vvcurveto
            388 -107 callgsubr
            -352 77 -91 callgsubr
          </CharString>
          <CharString index="82">
            vlineto
            -14 callsubr
            return
          </CharString>
          <CharString index="83">
            248 callgsubr
            40 165 hstemhm
            69 226 -175 419 -267 230 -88 155 callsubr
            hintmask 1100111001000000
            -32 callgsubr
            hintmask 1010011000100000
            83 callgsubr
            hintmask 1001011000100000
            71 callsubr
            hintmask 1010011000100000
            -153 -57 callsubr
            212 vlineto
            84 -48 53 -73 8 vhcurveto
            hintmask 1010011001000000
            -55 callgsubr
            hintmask 1010010100000000
            398 194 callgsubr
            hintmask 1010010010000000
            310 -1000 -103 callsubr
            endchar
          </CharString>
          <CharString index="84">
            -36 callsubr
            193 return
          </CharString>
          <CharString index="85">
            648 -107 callgsubr
            return
          </CharString>
          <CharString index="86">
            53 0 396 -396 719 hstemhm
            47 227 -38 234 -37 226 hintmask 10010000
            51 callgsubr
            170 vlineto
            hintmask 10101000
            149 24 40 73 99 vvcurveto
            hintmask 01101000
            281 -107 callgsubr
            -154 -106 callsubr
            hintmask 10101000
            327 callsubr
            hintmask 01101000
            240 -94 callgsubr
            -281 vlineto
            hintmask 01010000
            -99 40 -73 149 -24 vhcurveto
            hintmask 10010000
            -170 -104 callsubr
            return
          </CharString>
          <CharString index="87">
            152 callsubr
            211 234 hintmask 11010000
            95 callgsubr
            hintmask 10110000
            491 147 20 callsubr
            hintmask 11010000
            -34 callsubr
            hintmask 10110000
            67 callsubr
            hintmask 11010000
            133 callgsubr
            return
          </CharString>
          <CharString index="88">
            0 -23 callsubr
            return
          </CharString>
          <CharString index="89">
            94 5 callgsubr
            28 350 callgsubr
            -160 418 -90 226 -119 177 hintmask 10101010
            -7 callgsubr
            hintmask 10101001
            235 callsubr
            hintmask 11101001
            218 callgsubr
            hintmask 10101010
            -122 61 -82 250 vhcurveto
            -84 240 193 callgsubr
            49 549 -37 callgsubr
          </CharString>
          <CharString index="90">
            rmoveto
            -51 callgsubr
            return
          </CharString>
          <CharString index="91">
            36 rmoveto
            hintmask 00100100
            186 76 20 callsubr
            hintmask 10010100
            344 callsubr
            -76 126 hlineto
            hintmask 00011000
            147 -101 callgsubr
            hintmask 01001000
            -34 callsubr
            hintmask 00011000
            -64 callgsubr
            hintmask 10010100
            147 -126 -77 -106 callsubr
            hintmask 00100100
            153 callgsubr
            77 hlineto
            hintmask 01000100
            -186 305 callgsubr
            endchar
          </CharString>
          <CharString index="92">
            rmoveto
            -23 -6 -16 0 -23 6 rrcurveto
            return
          </CharString>
          <CharString index="93">
            -25 11 -11 25 148 callgsubr
            return
          </CharString>
          <CharString index="94">
            52 0 389 -389 720 81 176 135 callgsubr
            hintmask 01101000
            51 callgsubr
            127 vlineto
            hintmask 01110100
            -68 callgsubr
            hintmask 10110100
            -70 callgsubr
            hintmask 01110100
            -60 callsubr
            hintmask 01101000
            153 -205 rlineto
            -128 11 callgsubr
            48 797 105 callgsubr
          </CharString>
          <CharString index="95">
            -136 -105 vlineto
            -40 -6 22 27 hvcurveto
            199 162 callgsubr
            216 -94 callsubr
            -258 hlineto
            -189 -57 -83 -121 hvcurveto
            -272 -28 callgsubr
            return
          </CharString>
          <CharString index="96">
            94 5 callgsubr
            174 336 callgsubr
            88 147 -67 86 callsubr
            hintmask 11110010
            -58 callgsubr
            hintmask 11110100
            10 callgsubr
            hintmask 11111000
            154 542 -98 callgsubr
          </CharString>
          <CharString index="97">
            -270 68 callgsubr
            198 186 callgsubr
            -271 -28 callgsubr
            return
          </CharString>
          <CharString index="98">
            -79 callgsubr
            -11 callgsubr
            -330 76 261 callsubr
            95 264 callgsubr
            67 330 hlineto
            25 11 11 25 hvcurveto
            113 vlineto
            25 -11 11 -25 vhcurveto
            -518 53 callgsubr
          </CharString>
          <CharString index="99">
            756 -99 callsubr
            return
          </CharString>
          <CharString index="100">
            -18 -8 -8 -18 hvcurveto
            return
          </CharString>
          <CharString index="101">
            rmoveto
            85 -43 58 -174 -174 -43 -58 -85 vhcurveto
            -98 160 callsubr
            -157 33 rmoveto
            -29 196 callgsubr
            29 vhcurveto
            35 vlineto
            26 8 14 49 50 9 -14 -26 vhcurveto
            endchar
          </CharString>
          <CharString index="102">
            93 96 callsubr
            454 -454 720 -455 189 171 callgsubr
            -39 232 -29 226 hintmask 11010101
            260 -80 callsubr
            hintmask 11001101
            359 callgsubr
            hintmask 11010101
            79 callsubr
            hintmask 11100101
            221 callsubr
            hintmask 11010101
            102 233 rlineto
            21 9 -8 12 -23 hhcurveto
            -154 hlineto
            -26 -14 -9 -24 -10 hvcurveto
            hintmask 11100101
            -103 -233 rlineto
            -40 hlineto
            hintmask 11010101
            217 callsubr
            259 -362 rmoveto
            hintmask 11010010
            -82 callsubr
          </CharString>
          <CharString index="103">
            22 rmoveto
            hintmask 01010010
            -7 86 rlineto
            hintmask 01011000
            165 -17 rlineto
            35 -3 7 6 35 vvcurveto
            hintmask 10011000
            131 vlineto
            35 -7 6 -35 -4 vhcurveto
            -175 -16 20 67 rlineto
            23 vlineto
            -20 68 175 -16 rlineto
            35 -4 7 6 35 vvcurveto
            hintmask 10101000
            131 vlineto
            34 -7 6 -35 -3 vhcurveto
            hintmask 10100100
            -165 -16 rlineto
            hintmask 10010100
            7 86 rlineto
            35 3 -5 7 -35 hhcurveto
            hintmask 10010010
            -144 hlineto
            -35 -5 -7 -35 3 hvcurveto
            hintmask 10100010
            7 -86 rlineto
            hintmask 10101000
            -165 16 rlineto
            -35 3 -7 -6 -34 vvcurveto
            hintmask 10011000
            -131 vlineto
            -35 7 -6 35 4 vhcurveto
            174 16 -19 -68 rlineto
            -1 -3 0 -4 0 -4 0 -5 0 -4 -3 flex1
            19 -67 -174 16 rlineto
            -35 4 -7 -6 -35 vvcurveto
            hintmask 01011000
            -131 vlineto
            -35 7 -6 35 3 vhcurveto
            hintmask 01010100
            165 17 rlineto
            hintmask 10010100
            -7 -86 rlineto
            -36 -3 5 -6 35 hhcurveto
            hintmask 10010010
            144 hlineto
            35 5 6 36 -3 hvcurveto
            endchar
          </CharString>
          <CharString index="104">
            720 -101 callsubr
            return
          </CharString>
          <CharString index="105">
            77 0 -36 callsubr
            194 118 133 122 callsubr
            116 154 callgsubr
            hintmask 10110110
            425 764 rmoveto
            -29 196 callgsubr
            29 vhcurveto
            35 vlineto
            26 8 14 49 50 9 -14 -26 vhcurveto
            -95 -289 rmoveto
            12 4 7 5 8 hhcurveto
            25 hlineto
            8 7 -5 -12 4 hvcurveto
            47 -152 rlineto
            -157 hlineto
            hintmask 10111001
            163 callsubr
            hintmask 10110110
            -84 220 rlineto
            21 24 8 31 36 127 callgsubr
            -36 8 -31 21 -24 vhcurveto
            hintmask 10111001
            -84 -220 213 callsubr
          </CharString>
          <CharString index="106">
            419 2 callgsubr
            return
          </CharString>
          <CharString index="107">
            260 720 rmoveto
            127 callsubr
            446 -94 callsubr
            -255 491 104 callgsubr
            return
          </CharString>
          <CharString index="108">
            196 95 callsubr
            361 callgsubr
            19 230 15 226 hintmask 11010100
            254 -80 callsubr
            352 vlineto
            hintmask 10110100
            59 -109 rlineto
            -23 12 15 -9 26 hhcurveto
            40 hlineto
            26 15 9 23 12 hvcurveto
            59 109 rlineto
            hintmask 11010100
            -352 vlineto
            -25 10 -11 26 vhcurveto
            154 145 callsubr
            -162 hlineto
            -21 -13 -8 -22 -12 hvcurveto
            hintmask 10110100
            -89 -163 rlineto
            -12 -7 -3 -5 -8 hhcurveto
            -9 hlineto
            -8 -3 5 12 -7 hvcurveto
            hintmask 11010100
            212 callgsubr
            hintmask 11011100
            398 186 callsubr
            endchar
          </CharString>
          <CharString index="109">
            rmoveto
            226 callgsubr
            -157 -106 callsubr
            -415 44 callgsubr
            -82 241 243 162 callsubr
            return
          </CharString>
          <CharString index="110">
            rmoveto
            25 5 12 24 6 hvcurveto
            47 196 rlineto
            24 6 -17 12 -25 hhcurveto
            -138 hlineto
            -25 -7 -11 -25 -4 hvcurveto
            -33 -196 rlineto
            -25 -4 15 -11 25 hhcurveto
            endchar
          </CharString>
          <CharString index="111">
            46 callsubr
            18 350 callgsubr
            -127 418 -123 226 hintmask 10101010
            100 callgsubr
            hintmask 11101010
            122 -60 83 -250 -250 -61 288 callsubr
            61 -82 250 vhcurveto
            hintmask 10101010
            250 60 82 122 hvcurveto
            -394 36 193 callgsubr
            82 539 -37 callgsubr
          </CharString>
          <CharString index="112">
            66 callgsubr
            346 callgsubr
            227 -114 419 267 callgsubr
            hintmask 10101010
            619 -80 callsubr
            hintmask 01101010
            309 275 callsubr
            -77 callgsubr
            45 20 callgsubr
            hintmask 10110100
            -86 callgsubr
          </CharString>
          <CharString index="113">
            179 77 189 return
          </CharString>
          <CharString index="114">
            94 208 callsubr
            136 callgsubr
            -31 230 -31 86 callsubr
            hintmask 10110010
            -58 callgsubr
            hintmask 11110100
            10 callgsubr
            hintmask 10101000
            163 -465 -103 callsubr
            endchar
          </CharString>
          <CharString index="115">
            -106 callgsubr
            150 vlineto
            hintmask 01101000
            144 24 39 74 98 vvcurveto
            261 -107 callgsubr
            -154 -106 callsubr
            hintmask 10101000
            -220 191 callgsubr
            hintmask 01101000
            220 -94 callgsubr
            -261 vlineto
            hintmask 01010000
            227 callsubr
            -150 -104 callsubr
            return
          </CharString>
          <CharString index="116">
            35 5 6 35 2 hvcurveto
            8 293 rlineto
            35 1 -6 6 -34 hhcurveto
            -165 hlineto
            -35 -6 -6 -35 1 hvcurveto
            8 -293 rlineto
            -35 1 6 -6 35 hhcurveto
            return
          </CharString>
          <CharString index="117">
            -107 callgsubr
            -157 210 callgsubr
            return
          </CharString>
          <CharString index="118">
            193 362 195 return
          </CharString>
          <CharString index="119">
            rmoveto
            123 callsubr
            228 hlineto
            92 48 45 74 hvcurveto
            72 vlineto
            64 -23 33 -68 8 vhcurveto
            return
          </CharString>
          <CharString index="120">
            61 callgsubr
            -132 348 callgsubr
            return
          </CharString>
          <CharString index="121">
            0 55 callsubr
            return
          </CharString>
          <CharString index="122">
            42 95 callsubr
            170 callsubr
            373 165 171 callgsubr
            -156 419 -311 230 -45 217 hintmask 11011001
            121 callsubr
            hintmask 10111001
            315 -53 callsubr
            hintmask 11011001
            -162 -137 495 vlineto
            25 -11 11 -25 vhcurveto
            127 callsubr
            hintmask 11010010
            177 callgsubr
            hintmask 11010100
            239 1000 -67 callgsubr
            hintmask 11011001
            269 callsubr
          </CharString>
          <CharString index="123">
            -1 callgsubr
            257 callgsubr
            69 224 -159 92 callsubr
            270 218 callsubr
            hintmask 11110100
            133 callsubr
            endchar
          </CharString>
          <CharString index="124">
            42 18 14 40 56 vvcurveto
            46 vlineto
            99 -47 68 -150 vhcurveto
            return
          </CharString>
          <CharString index="125">
            72 callsubr
            81 176 hstemhm
            92 334 callsubr
            hintmask 11101000
            89 hmoveto
            426 -99 callgsubr
            181 20 callgsubr
            hintmask 11110000
            -86 callgsubr
          </CharString>
          <CharString index="126">
            -243 -295 67 callgsubr
            return
          </CharString>
          <CharString index="127">
            vlineto
            -106 callgsubr
            return
          </CharString>
          <CharString index="128">
            -69 callgsubr
            -202 return
          </CharString>
          <CharString index="129">
            318 callsubr
            257 callgsubr
            118 419 -326 234 hintmask 10101000
            95 callgsubr
            hintmask 01101000
            491 147 20 callsubr
            hintmask 10101000
            -34 callsubr
            hintmask 01101000
            67 callsubr
            hintmask 10101000
            133 callgsubr
            112 218 callsubr
            hintmask 10110000
            133 callsubr
            endchar
          </CharString>
          <CharString index="130">
            -3 -126 315 -189 190 callsubr
            hintmask 10110000
            339 -126 rmoveto
            26 13 9 21 7 hvcurveto
            34 96 rlineto
            120 5 71 62 109 vvcurveto
            -73 callsubr
            -280 60 callgsubr
            hintmask 01110000
            -74 callsubr
            128 hlineto
            hintmask 10110000
            -32 -86 161 callgsubr
            endchar
          </CharString>
          <CharString index="131">
            82 122 return
          </CharString>
          <CharString index="132">
            124 0 189 351 195 hstem
            78 227 168 227 vstem
            362 36 rmoveto
            114 vlineto
            22 -8 5 -19 7 vhcurveto
            -24 9 -6 13 19 vvcurveto
            269 vlineto
            26 12 20 72 72 12 297 callgsubr
            -19 -6 -13 -24 -9 vhcurveto
            -19 -7 -8 -5 -22 vvcurveto
            -114 -104 callsubr
            254 -85 callsubr
            -39 hlineto
            24 33 9 40 47 vvcurveto
            221 vlineto
            122 -61 83 -250 -250 -61 -83 -122 vhcurveto
            -221 vlineto
            -47 9 -40 24 -33 vhcurveto
            -39 -29 callsubr
            254 158 callsubr
          </CharString>
          <CharString index="133">
            196 0 361 callgsubr
            264 226 hintmask 10110000
            254 -80 callsubr
            352 vlineto
            hintmask 01110000
            59 -109 rlineto
            -23 12 15 -9 26 hhcurveto
            40 hlineto
            26 15 9 23 12 hvcurveto
            59 109 rlineto
            hintmask 10110000
            -352 vlineto
            -25 10 -11 26 vhcurveto
            154 145 callsubr
            -162 hlineto
            -21 -13 -8 -22 -12 hvcurveto
            hintmask 01110000
            -89 -163 rlineto
            -12 -7 -3 -5 -8 hhcurveto
            -9 hlineto
            -8 -3 5 12 -7 hvcurveto
            hintmask 10110000
            212 callgsubr
            endchar
          </CharString>
          <CharString index="134">
            106 0 189 342 189 171 callgsubr
            98 234 -131 228 hintmask 11101000
            296 36 rmoveto
            495 vlineto
            hintmask 11110000
            79 hlineto
            17 5 -13 -15 -3 hvcurveto
            -33 -163 rlineto
            hintmask 11101000
            -37 -8 13 -19 32 hhcurveto
            72 hlineto
            16 11 -7 -16 hvcurveto
            -49 vlineto
            -16 -11 -7 -16 vhcurveto
            -78 -29 callsubr
            138 hlineto
            120 75 64 102 hvcurveto
            123 vlineto
            93 -57 51 -71 13 vhcurveto
            23 83 rlineto
            hintmask 11110000
            111 31 -57 80 -118 hhcurveto
            -371 hlineto
            -24 -12 -12 -24 328 callgsubr
            hintmask 11101000
            -106 callgsubr
            endchar
          </CharString>
          <CharString index="135">
            46 callsubr
            25 165 78 callsubr
            hintmask 10110100
            100 callgsubr
            hintmask 11110100
            122 -60 83 -250 -250 -61 288 callsubr
            61 -82 250 vhcurveto
            hintmask 10110100
            117 callgsubr
            hintmask 11110100
            -84 callgsubr
            vhcurveto
            hintmask 10110100
            280 callgsubr
            hvcurveto
            hintmask 10101000
            256 535 -90 callsubr
            endchar
          </CharString>
          <CharString index="136">
            77 0 210 -210 720 hstemhm
            54 234 159 229 hintmask 10110000
            495 hmoveto
            26 15 8 25 10 hvcurveto
            98 245 rlineto
            24 60 8 19 63 vvcurveto
            hintmask 01110000
            264 vlineto
            115 callgsubr
            -157 -106 callsubr
            -275 vlineto
            -14 -3 -12 -5 -15 vhcurveto
            hintmask 10110000
            -47 -141 rlineto
            -13 -4 -4 -4 -11 hhcurveto
            -11 hlineto
            -11 -4 4 13 -4 hvcurveto
            -47 140 rlineto
            -5 15 -3 12 14 vvcurveto
            hintmask 01110000
            276 vlineto
            25 -14 11 -25 vhcurveto
            -159 288 callgsubr
            -63 8 -19 24 -60 vhcurveto
            hintmask 10110000
            98 -245 rlineto
            -25 10 15 -8 26 hhcurveto
            endchar
          </CharString>
          <CharString index="137">
            58 9 rlineto
            25 4 11 6 26 vvcurveto
            107 vlineto
            26 -11 14 -25 -4 vhcurveto
            -58 -9 rlineto
            179 -94 callgsubr
            -216 vlineto
            -23 -4 rlineto
            -25 -4 -11 -7 -25 vvcurveto
            -107 vlineto
            -26 11 -14 25 4 vhcurveto
            23 4 rlineto
            -253 140 callsubr
          </CharString>
          <CharString index="138">
            -25 40 191 256 295 callsubr
            -32 217 hintmask 11010000
            471 -14 rmoveto
            54 vlineto
            hintmask 11100000
            77 -87 callgsubr
            -201 68 callgsubr
            158 vlineto
            26 9 24 52 -15 callgsubr
            hintmask 11010000
            -77 54 hlineto
            108 callsubr
            -56 vlineto
            hintmask 11100000
            -149 -14 -47 -79 -110 vvcurveto
            -231 vlineto
            -110 47 -78 149 -14 vhcurveto
            hintmask 11010000
            -56 vlineto
            116 callsubr
          </CharString>
          <CharString index="139">
            229 vlineto
            26 11 20 66 67 308 callsubr
            -229 230 callsubr
            -67 return
          </CharString>
          <CharString index="140">
            -23 callsubr
            34 223 122 callsubr
            return
          </CharString>
          <CharString index="141">
            rmoveto
            73 141 74 -141 rlineto
            hintmask 11000000
            16 -28 7 -3 29 19 94 68 rcurveline
            28 20 1 9 -23 25 -110 115 rcurveline
            153 25 34 6 5 7 -11 33 rlinecurve
            -37 111 -11 33 -8 4 -30 -15 rlinecurve
            hintmask 10100000
            -137 -64 20 149 rlineto
            34 6 -6 7 -34 hhcurveto
            -117 hlineto
            -34 -7 -7 -34 5 hvcurveto
            23 -149 -142 64 -30 15 -9 -4 -10 -33 rlinecurve
            -36 -111 -11 -33 5 -7 34 -6 rlinecurve
            152 -25 rlineto
            hintmask 11000000
            -109 -115 -23 -25 1 -9 28 -20 rlinecurve
            94 -68 rlineto
            hintmask 10100000
            29 -19 8 3 16 28 rrcurveto
            endchar
          </CharString>
          <CharString index="142">
            -104 callsubr
            150 return
          </CharString>
          <CharString index="143">
            234 -37 221 hintmask 01001000
            184 callsubr
            118 vlineto
            hintmask 01100100
            54 callsubr
            hintmask 10100100
            21 callgsubr
            hintmask 01100100
            134 -107 callgsubr
            -154 -106 callsubr
            -162 vlineto
            -52 7 -30 31 -41 vhcurveto
            hintmask 01001000
            182 callgsubr
            return
          </CharString>
          <CharString index="144">
            270 callsubr
            hintmask 10110100
            137 -40 rlineto
            -107 callsubr
            return
          </CharString>
          <CharString index="145">
            -75 callgsubr
            7 callgsubr
            -11 -63 callgsubr
            11 -10 23 vhcurveto
            endchar
          </CharString>
          <CharString index="146">
            218 42 callsubr
            return
          </CharString>
          <CharString index="147">
            31 14 11 27 37 vvcurveto
            41 vlineto
            71 -42 43 -145 -145 -44 -43 -71 vhcurveto
            -41 vlineto
            -37 10 -27 32 -14 vhcurveto
            return
          </CharString>
          <CharString index="148">
            72 0 170 118 154 108 170 hstemhm
            69 225 123 199 -154 221 hintmask 11110100
            489 hmoveto
            133 61 52 112 hvcurveto
            92 vlineto
            98 -40 49 -86 8 vhcurveto
            hintmask 11111000
            40 17 19 35 56 vvcurveto
            48 vlineto
            105 -61 48 -131 vhcurveto
            -319 -97 callgsubr
            189 550 rmoveto
            85 hlineto
            26 12 -13 -27 hvcurveto
            -28 vlineto
            -27 -12 -13 -26 vhcurveto
            -85 hlineto
            -154 vmoveto
            hintmask 11110100
            130 hlineto
            26 12 -12 -27 hvcurveto
            -39 vlineto
            -27 -12 -13 -26 vhcurveto
            -130 hlineto
            endchar
          </CharString>
          <CharString index="149">
            797 -52 callgsubr
            return
          </CharString>
          <CharString index="150">
            -456 139 callsubr
            340 callsubr
            -61 322 callgsubr
            -61 -82 -122 vhcurveto
            return
          </CharString>
          <CharString index="151">
            -80 callsubr
            hintmask 00111000
            194 vlineto
            22 11 13 21 vhcurveto
            100 hlineto
            21 11 -13 -22 hvcurveto
            hintmask 01011000
            -194 39 callgsubr
            281 vlineto
            65 -32 48 -54 16 vhcurveto
            65 239 rlineto
            23 6 -8 12 -25 hhcurveto
            -152 hlineto
            -26 -11 -10 -25 -6 hvcurveto
            hintmask 10011000
            -48 -231 rlineto
            -33 hlineto
            hintmask 01011000
            -48 231 rlineto
            25 -6 -12 10 -26 hhcurveto
            -151 hlineto
            -24 -8 -12 -23 6 hvcurveto
            65 -239 rlineto
            -56 -15 -33 -48 -66 vvcurveto
            -281 140 callsubr
          </CharString>
          <CharString index="152">
            84 callgsubr
            hintmask 11110110
            325 callgsubr
            284 callgsubr
            hintmask 11111010
            68 callsubr
            hvcurveto
            endchar
          </CharString>
          <CharString index="153">
            84 5 callgsubr
            return
          </CharString>
          <CharString index="154">
            226 hintmask 10111001
            330 510 rmoveto
            12 5 6 5 8 hhcurveto
            25 hlineto
            8 6 -5 -12 5 hvcurveto
            47 -152 rlineto
            -157 hlineto
            -10 -322 rmoveto
            hintmask 01111001
            140 177 vlineto
            hintmask 10111001
            -105 callsubr
            hintmask 10110110
            return
          </CharString>
          <CharString index="155">
            -45 callgsubr
            81 176 166 callsubr
            return
          </CharString>
          <CharString index="156">
            412 -412 720 -488 180 128 180 return
          </CharString>
          <CharString index="157">
            -528 -106 callsubr
            return
          </CharString>
          <CharString index="158">
            84 -90 263 -151 -21 538 196 136 callgsubr
            -30 226 -28 226 hintmask 10101000
            445 -90 -79 callgsubr
            hintmask 01101000
            55 vlineto
            hintmask 01110100
            157 22 41 74 101 vvcurveto
            332 120 callgsubr
            -332 vlineto
            -101 42 -73 155 -23 vhcurveto
            hintmask 10101000
            -55 316 callgsubr
            -6 310 rmoveto
            273 vlineto
            26 12 20 72 73 308 callsubr
            -273 354 callsubr
            endchar
          </CharString>
          <CharString index="159">
            -106 callgsubr
            80 callsubr
            -159 53 callgsubr
          </CharString>
          <CharString index="160">
            93 -90 191 -101 101 -80 -21 539 220 callgsubr
            165 229 hintmask 00111100
            64 531 rmoveto
            -495 17 callgsubr
            124 callgsubr
            hintmask 01011100
            -343 vlineto
            -28 -6 -20 -35 vhcurveto
            -21 259 callsubr
            -28 callsubr
            45 hlineto
            189 57 83 121 hvcurveto
            417 vlineto
            122 -61 82 -248 vhcurveto
            hintmask 00111100
            -248 -61 -82 -122 hvcurveto
            endchar
          </CharString>
          <CharString index="161">
            146 205 204 callgsubr
            30 52 vvcurveto
            162 -107 callgsubr
            -149 -106 callsubr
            -134 vlineto
            return
          </CharString>
          <CharString index="162">
            191 336 193 return
          </CharString>
          <CharString index="163">
            131 callgsubr
            243 hmoveto
            63 callsubr
          </CharString>
          <CharString index="164">
            273 rmoveto
            hintmask 11010000
            95 13 60 41 112 vvcurveto
            105 vlineto
            114 -77 62 -130 vhcurveto
            -323 -106 callsubr
            -121 -40 callgsubr
            276 hlineto
            17 10 -9 -19 -20 -7 -8 -20 -3 hvcurveto
            -199 -28 -25 -3 -12 -12 4 -26 rlinecurve
            21 -132 4 -25 10 -9 25 3 rlinecurve
            hintmask 11100000
            159 -236 -79 callgsubr
            131 -69 callgsubr
            -183 hlineto
            -26 -10 -10 -26 hvcurveto
            -131 329 callsubr
          </CharString>
          <CharString index="165">
            274 241 69 callsubr
            return
          </CharString>
          <CharString index="166">
            rmoveto
            27 9 20 71 70 9 -20 -27 vhcurveto
            -109 -159 vlineto
            -312 vmoveto
            return
          </CharString>
          <CharString index="167">
            60 -90 660 -585 186 hstemhm
            61 227 145 224 hintmask 01110000
            288 -54 rmoveto
            47 vlineto
            -5 26 30 -3 34 hhcurveto
            224 55 217 callgsubr
            hintmask 10110000
            345 -107 callgsubr
            -152 87 callgsubr
            hintmask 01110000
            -316 230 callsubr
            -62 -61 -11 20 27 vhcurveto
            hintmask 10110000
            316 -94 callgsubr
            -588 -104 callsubr
            155 hlineto
            hintmask 01110000
            -106 callgsubr
            endchar
          </CharString>
          <CharString index="168">
            hhcurveto
            -250 -61 -83 -122 hvcurveto
            -341 vlineto
            return
          </CharString>
          <CharString index="169">
            0 185 76 167 67 185 return
          </CharString>
          <CharString index="170">
            -33 callgsubr
            endchar
          </CharString>
          <CharString index="171">
            62 -15 193 88 179 86 189 hstem
            53 227 168 218 vstem
            364 -15 rmoveto
            244 58 217 callgsubr
            327 vlineto
            121 -57 83 -189 vhcurveto
            -254 -29 callsubr
            221 hlineto
            52 9 -20 -28 hvcurveto
            -38 -359 142 callsubr
            -220 vlineto
            -2 callgsubr
            250 vhcurveto
            193 vmoveto
            280 callgsubr
            hvcurveto
            41 168 -41 230 callsubr
            -73 vhcurveto
            endchar
          </CharString>
          <CharString index="172">
            190 vlineto
            71 -34 48 -143 -143 -36 -48 -71 vhcurveto
            -190 vlineto
            -71 36 -48 143 143 34 48 71 vhcurveto
            return
          </CharString>
          <CharString index="173">
            83 callsubr
            -12 -20 return
          </CharString>
          <CharString index="174">
            358 callsubr
            hlineto
            return
          </CharString>
          <CharString index="175">
            174 43 58 85 return
          </CharString>
          <CharString index="176">
            rlineto
            18 19 7 17 27 vvcurveto
            149 -107 callgsubr
            -512 -83 callsubr
            266 hlineto
            return
          </CharString>
          <CharString index="177">
            78 vlineto
            0 8 3 9 21 20 3 -9 0 hflex1
            -78 vlineto
            0 -10 -3 -8 -20 -20 -4 8 0 hflex1
            return
          </CharString>
          <CharString index="178">
            196 140 154 callsubr
            return
          </CharString>
          <CharString index="179">
            -48 14 callsubr
            return
          </CharString>
          <CharString index="180">
            115 callsubr
            111 hlineto
            26 7 8 26 hvcurveto
            return
          </CharString>
          <CharString index="181">
            -416 139 callsubr
            -101 callgsubr
            455 vlineto
            122 -52 322 callgsubr
            -52 -82 -122 vhcurveto
            return
          </CharString>
          <CharString index="182">
            522 304 callsubr
            -522 -106 callsubr
            -114 -40 callgsubr
            return
          </CharString>
          <CharString index="183">
            140 177 vlineto
            return
          </CharString>
          <CharString index="184">
            rmoveto
            165 42 58 88 hvcurveto
            69 vlineto
            85 -39 44 -130 -39 -30 -4 -7 -23 vhcurveto
            16 vlineto
            36 11 8 35 vhcurveto
            134 hlineto
            129 callsubr
            84 vlineto
            18 -7 8 -19 vhcurveto
            -165 hlineto
            -136 -41 -59 -88 hvcurveto
            -236 vlineto
            -88 39 -58 177 vhcurveto
            -54 200 rmoveto
            14 7 12 42 43 6 -12 -14 vhcurveto
            -43 vlineto
            -15 -6 -11 -43 -42 -7 11 15 vhcurveto
            endchar
          </CharString>
          <CharString index="185">
            77 callgsubr
            -124 226 return
          </CharString>
          <CharString index="186">
            -195 39 callgsubr
            282 vlineto
            return
          </CharString>
          <CharString index="187">
            608 -107 callgsubr
            return
          </CharString>
          <CharString index="188">
            136 41 60 88 hvcurveto
            236 vlineto
            88 -39 57 -177 -165 -42 -57 -88 vhcurveto
            -69 vlineto
            -86 39 -44 130 38 30 4 7 23 vhcurveto
            -16 vlineto
            -35 -10 -8 -35 vhcurveto
            -135 hlineto
            -18 -7 -8 -18 hvcurveto
            -85 vlineto
            -18 7 -8 18 vhcurveto
            180 330 rmoveto
            -15 -6 -11 -42 -43 -6 11 15 vhcurveto
            42 vlineto
            15 6 12 43 42 6 -12 -15 vhcurveto
            endchar
          </CharString>
          <CharString index="189">
            495 -107 callgsubr
            -157 -106 callsubr
            return
          </CharString>
          <CharString index="190">
            87 callgsubr
            -456 vlineto
            -27 return
          </CharString>
          <CharString index="191">
            72 vlineto
            26 -8 8 -28 vhcurveto
            return
          </CharString>
          <CharString index="192">
            -35 21 -21 233 192 104 191 hstem
            69 227 vstem
            112 callsubr
            endchar
          </CharString>
          <CharString index="193">
            226 -119 177 hintmask 11110100
            -7 callgsubr
            return
          </CharString>
          <CharString index="194">
            161 116 157 return
          </CharString>
          <CharString index="195">
            720 333 callsubr
            -131 -40 callgsubr
            184 73 callgsubr
            131 315 callsubr
            -170 -262 rmoveto
            -100 callgsubr
            -1 hvcurveto
            -15 -386 rlineto
            -25 -1 10 -11 25 hhcurveto
            191 hlineto
            25 10 11 25 -1 hvcurveto
            -14 386 rlineto
            25 -1 -12 11 -25 hhcurveto
            endchar
          </CharString>
          <CharString index="196">
            169 callgsubr
            -166 hmoveto
            97 callsubr
          </CharString>
          <CharString index="197">
            -87 -41 callsubr
            return
          </CharString>
          <CharString index="198">
            26 9 24 52 vhcurveto
            return
          </CharString>
          <CharString index="199">
            419 hintmask 11111000
            569 hmoveto
            -103 callgsubr
            return
          </CharString>
          <CharString index="200">
            rmoveto
            90 hlineto
            39 8 -23 -26 hvcurveto
            -53 vlineto
            -26 -8 -23 -39 vhcurveto
            -90 hlineto
            return
          </CharString>
          <CharString index="201">
            vlineto
            -139 78 -65 168 vhcurveto
            return
          </CharString>
          <CharString index="202">
            -240 199 41 return
          </CharString>
          <CharString index="203">
            124 callsubr
            43 return
          </CharString>
          <CharString index="204">
            9 callsubr
            endchar
          </CharString>
          <CharString index="205">
            vhcurveto
            49 757 105 callgsubr
          </CharString>
          <CharString index="206">
            -107 callgsubr
            -332 50 callgsubr
            return
          </CharString>
          <CharString index="207">
            100 vstem
            807 154 rmoveto
            410 vlineto
            147 -72 100 -301 -300 -74 -100 -147 vhcurveto
            -410 vlineto
            -146 74 -99 300 301 72 99 146 vhcurveto
            -100 -4 rmoveto
            -86 -53 -59 -220 -220 -54 59 86 vhcurveto
            418 vlineto
            87 54 60 220 220 53 -60 -87 vhcurveto
            return
          </CharString>
          <CharString index="208">
            -15 callsubr
            hintmask 01000100
            -137 40 rlineto
            224 callsubr
            hintmask 10010100
            -36 8 -4 34 -13 vhcurveto
            137 -50 rlineto
            -4 10 10 -1 12 hhcurveto
            12 1 15 3 12 5 128 46 rcurveline
            15 callgsubr
            hintmask 01000100
            -27 callgsubr
            return
          </CharString>
          <CharString index="209">
            rmoveto
            522 145 callgsubr
            -522 134 callsubr
          </CharString>
          <CharString index="210">
            25 11 10 26 hvcurveto
            152 callgsubr
            return
          </CharString>
          <CharString index="211">
            -31 4 -24 3 -114 17 -19 7 -103 -36 rlinecurve
            -20 -7 -17 -11 -35 vvcurveto
            -106 vlineto
            -23 17 -11 34 9 vhcurveto
            75 23 23 6 108 -16 rrcurveto
            return
          </CharString>
          <CharString index="212">
            rmoveto
            23 -3 113 -17 21 -7 103 36 rlinecurve
            18 7 19 11 35 vvcurveto
            99 vlineto
            30 -17 11 -35 -10 vhcurveto
            -83 -25 -6 -4 -125 18 rrcurveto
            return
          </CharString>
          <CharString index="213">
            -23 vvcurveto
            -16 -9 -13 -17 vhcurveto
            -311 -106 callsubr
            return
          </CharString>
          <CharString index="214">
            49 callsubr
            hstemhm
            return
          </CharString>
          <CharString index="215">
            -105 callgsubr
            -145 -106 callsubr
            return
          </CharString>
          <CharString index="216">
            -80 callsubr
            hintmask 01110000
            return
          </CharString>
          <CharString index="217">
            -25 vhcurveto
            -202 hlineto
            -25 -11 return
          </CharString>
          <CharString index="218">
            761 -52 callgsubr
            return
          </CharString>
          <CharString index="219">
            260 -80 callsubr
            197 174 20 callsubr
            120 -107 callgsubr
            -174 104 255 -87 callgsubr
            -446 -97 callgsubr
            return
          </CharString>
          <CharString index="220">
            rmoveto
            136 41 60 87 hvcurveto
            339 vlineto
            88 -41 60 -136 vhcurveto
            -39 -3 callgsubr
            23 hlineto
            23 6 8 callgsubr
            -285 vlineto
            -25 -6 -11 -23 vhcurveto
            -23 -26 callgsubr
            -86 -41 callsubr
            endchar
          </CharString>
          <CharString index="221">
            128 callgsubr
            -75 callgsubr
            return
          </CharString>
          <CharString index="222">
            -93 -14 29 -42 86 hhcurveto
            return
          </CharString>
          <CharString index="223">
            -102 callsubr
            145 158 callsubr
          </CharString>
          <CharString index="224">
            0 338 126 callgsubr
            149 193 return
          </CharString>
          <CharString index="225">
            0 155 callgsubr
            return
          </CharString>
          <CharString index="226">
            350 callsubr
            272 vlineto
            121 -57 83 -189 vhcurveto
            -323 -53 callgsubr
            191 489 rmoveto
            105 242 callsubr
            -203 241 callsubr
            -105 hlineto
            return
          </CharString>
          <CharString index="227">
            55 callsubr
            hstemhm
            46 568 -550 532 return
          </CharString>
          <CharString index="228">
            614 -80 callsubr
            return
          </CharString>
          <CharString index="229">
            156 callgsubr
            -125 161 return
          </CharString>
          <CharString index="230">
            -7 callsubr
            -84 -41 callsubr
            return
          </CharString>
          <CharString index="231">
            -362 95 37 187 return
          </CharString>
          <CharString index="232">
            -336 0 720 -699 -21 hstemhm
            4 309 hintmask 01100000
            5 267 callsubr
            hintmask 10100000
            -5 callgsubr
          </CharString>
          <CharString index="233">
            -94 callgsubr
            hintmask 10111000
            return
          </CharString>
          <CharString index="234">
            -155 -97 callgsubr
            return
          </CharString>
          <CharString index="235">
            hstemhm
            45 226 -35 234 return
          </CharString>
          <CharString index="236">
            18 8 8 18 hvcurveto
            return
          </CharString>
          <CharString index="237">
            63 177 7 19 -5 13 -22 8 rlinecurve
            -116 43 -24 9 -12 -7 -8 -22 rlinecurve
            return
          </CharString>
          <CharString index="238">
            -152 -156 455 157 callgsubr
            return
          </CharString>
          <CharString index="239">
            159 -125 143 90 143 -125 159 return
          </CharString>
          <CharString index="240">
            -137 40 rlineto
            -98 callsubr
            return
          </CharString>
          <CharString index="241">
            -106 callsubr
            -134 135 callsubr
          </CharString>
          <CharString index="242">
            -40 callgsubr
            endchar
          </CharString>
          <CharString index="243">
            84 -15 93 callgsubr
            return
          </CharString>
          <CharString index="244">
            -138 hlineto
            -23 -10 -10 -23 hvcurveto
            -121 vlineto
            -23 10 -10 23 vhcurveto
            38 callsubr
          </CharString>
          <CharString index="245">
            119 callgsubr
            54 219 -118 418 -123 226 return
          </CharString>
          <CharString index="246">
            -104 callsubr
            157 return
          </CharString>
          <CharString index="247">
            -104 callsubr
            endchar
          </CharString>
          <CharString index="248">
            189 rmoveto
            341 vlineto
            return
          </CharString>
          <CharString index="249">
            vlineto
            -104 callgsubr
            return
          </CharString>
          <CharString index="250">
            189 -189 return
          </CharString>
          <CharString index="251">
            495 -107 callgsubr
            -152 66 callsubr
            -71 -70 -89 callgsubr
            return
          </CharString>
          <CharString index="252">
            -101 callgsubr
            -22 callsubr
            return
          </CharString>
          <CharString index="253">
            -106 callsubr
            -127 -104 callsubr
            return
          </CharString>
          <CharString index="254">
            vlineto
            27 12 20 62 61 12 -20 -27 vhcurveto
            return
          </CharString>
          <CharString index="255">
            720 256 callsubr
            return
          </CharString>
          <CharString index="256">
            hlineto
            -9 -51 rlineto
            hintmask 11101000
            115 callsubr
            hintmask 11110000
            279 callsubr
          </CharString>
          <CharString index="257">
            183 callgsubr
            -122 return
          </CharString>
          <CharString index="258">
            27 hlineto
            91 callsubr
            return
          </CharString>
          <CharString index="259">
            148 callsubr
            hstemhm
            return
          </CharString>
          <CharString index="260">
            64 hlineto
            35 9 -20 -27 hvcurveto
            -24 264 callsubr
            return
          </CharString>
          <CharString index="261">
            vlineto
            157 callsubr
            return
          </CharString>
          <CharString index="262">
            221 267 callgsubr
            return
          </CharString>
          <CharString index="263">
            144 176 callsubr
            144 hlineto
            hintmask 10100000
            return
          </CharString>
          <CharString index="264">
            28 10 -13 -30 hvcurveto
            return
          </CharString>
          <CharString index="265">
            -101 callgsubr
            endchar
          </CharString>
          <CharString index="266">
            -25 callgsubr
            81 176 return
          </CharString>
          <CharString index="267">
            293 callsubr
            68 callsubr
            vhcurveto
            return
          </CharString>
          <CharString index="268">
            -40 callgsubr
            13 return
          </CharString>
          <CharString index="269">
            60 196 callsubr
            return
          </CharString>
          <CharString index="270">
            138 callgsubr
            hintmask 01111001
            76 callsubr
            hintmask 10111001
            212 callsubr
            return
          </CharString>
          <CharString index="271">
            290 callsubr
            69 227 return
          </CharString>
          <CharString index="272">
            200 229 147 224 return
          </CharString>
          <CharString index="273">
            141 callgsubr
            419 return
          </CharString>
          <CharString index="274" raw="1">
            721efba8 0b  
          </CharString>
          <CharString index="275">
            675 172 callgsubr
            return
          </CharString>
          <CharString index="276">
            -349 43 rlineto
            -23 3 -11 -13 -23 vvcurveto
            -96 vlineto
            -25 11 -8 25 -3 vhcurveto
            endchar
          </CharString>
          <CharString index="277">
            143 callsubr
            387 return
          </CharString>
          <CharString index="278">
            499 179 callsubr
            return
          </CharString>
          <CharString index="279">
            210 callgsubr
            -122 return
          </CharString>
          <CharString index="280">
            293 callgsubr
            hvcurveto
            -381 36 rmoveto
            return
          </CharString>
          <CharString index="281">
            176 callgsubr
            -44 234 -43 226 return
          </CharString>
          <CharString index="282">
            -15 193 322 195 return
          </CharString>
          <CharString index="283">
            316 callsubr
            -34 callsubr
            hintmask 01100000
            -64 callgsubr
            return
          </CharString>
          <CharString index="284">
            vlineto
            -19 -12 13 21 hvcurveto
            274 -94 callgsubr
            -351 vlineto
            -114 52 -52 130 vhcurveto
            endchar
          </CharString>
          <CharString index="285">
            93 -15 196 return
          </CharString>
          <CharString index="286">
            724 -74 callgsubr
            return
          </CharString>
          <CharString index="287">
            hstemhm
            196 227 -133 419 -131 226 return
          </CharString>
          <CharString index="288">
            hstemhm
            199 219 -128 419 -132 224 return
          </CharString>
          <CharString index="289">
            -104 callsubr
            152 hlineto
            return
          </CharString>
          <CharString index="290">
            vhcurveto
            154 -101 callgsubr
            return
          </CharString>
          <CharString index="291">
            581 -80 callsubr
            return
          </CharString>
          <CharString index="292" raw="1">
            f7aa0af7 141d0b  
          </CharString>
          <CharString index="293">
            -240 -103 callsubr
            return
          </CharString>
          <CharString index="294">
            -6 150 -123 -21 272 150 -125 150 128 150 hstemhm
            42 145 67 144 242 145 67 144 return
          </CharString>
          <CharString index="295">
            rmoveto
            35 7 6 35 hvcurveto
            293 vlineto
            35 -5 6 -34 vhcurveto
            -155 hlineto
            -35 -5 -6 -35 hvcurveto
            -293 vlineto
            -35 7 -6 35 vhcurveto
            endchar
          </CharString>
          <CharString index="296">
            -13 142 callsubr
            -27 161 callsubr
            -41 -13 -106 callsubr
            -27 161 callsubr
            return
          </CharString>
          <CharString index="297">
            151 callgsubr
            51 559 return
          </CharString>
          <CharString index="298">
            -152 203 callgsubr
            return
          </CharString>
          <CharString index="299">
            -31 callgsubr
            -36 return
          </CharString>
          <CharString index="300">
            86 callgsubr
            -137 return
          </CharString>
          <CharString index="301">
            hlineto
            26 16 12 24 7 hvcurveto
            27 95 rlineto
            5 14 2 3 12 12 2 -4 5 hflex1
            28 -95 rlineto
            -23 9 14 -13 26 hhcurveto
            return
          </CharString>
          <CharString index="302">
            307 callsubr
            224 return
          </CharString>
          <CharString index="303">
            24 callsubr
            vhcurveto
            return
          </CharString>
          <CharString index="304">
            -57 callsubr
            hintmask 01110000
            return
          </CharString>
          <CharString index="305">
            0 401 -401 720 -498 179 126 193 hstemhm
            return
          </CharString>
          <CharString index="306">
            653 680 239 callgsubr
            return
          </CharString>
          <CharString index="307">
            324 218 rlineto
            18 10 12 12 20 vvcurveto
            20 -12 12 -18 11 vhcurveto
            -324 218 -22 14 -32 -13 2 -20 rlinecurve
            return
          </CharString>
          <CharString index="308">
            -28 callgsubr
            endchar
          </CharString>
          <CharString index="309">
            141 callsubr
            122 return
          </CharString>
          <CharString index="310">
            158 callgsubr
            1180 return
          </CharString>
          <CharString index="311">
            321 rmoveto
            44 vlineto
            20 7 16 56 57 5 -16 -20 vhcurveto
            -44 vlineto
            -21 -5 -16 -57 -56 -7 16 21 vhcurveto
            hintmask 11110010
            return
          </CharString>
          <CharString index="312">
            41 159 2 20 -32 13 -22 -14 rlinecurve
            -324 -218 rlineto
            -18 -11 -12 -12 -20 vvcurveto
            -20 12 -12 18 -10 vhcurveto
            return
          </CharString>
          <CharString index="313">
            -15 196 139 callgsubr
            return
          </CharString>
          <CharString index="314">
            0 143 callsubr
            361 126 193 return
          </CharString>
          <CharString index="315">
            -240 199 26 11 callsubr
            return
          </CharString>
          <CharString index="316">
            8 callgsubr
            -456 vlineto
            -27 -10 -20 return
          </CharString>
          <CharString index="317">
            228 callgsubr
            419 return
          </CharString>
          <CharString index="318">
            116 -54 79 -182 vhcurveto
            return
          </CharString>
          <CharString index="319">
            -140 vlineto
            -25 12 -11 27 vhcurveto
            151 -101 callgsubr
            264 vlineto
            40 -12 50 -27 70 vhcurveto
            return
          </CharString>
          <CharString index="320">
            rlineto
            -27 -70 -12 -50 -40 vvcurveto
            -264 -81 callsubr
            endchar
          </CharString>
          <CharString index="321">
            77 23 35 28 91 vvcurveto
            182 96 callgsubr
            return
          </CharString>
          <CharString index="322">
            -180 1080 hstem
            return
          </CharString>
          <CharString index="323">
            205 54 204 return
          </CharString>
          <CharString index="324">
            230 vlineto
            25 -11 11 -25 vhcurveto
            127 callsubr
            return
          </CharString>
          <CharString index="325">
            932 -15 callsubr
            return
          </CharString>
          <CharString index="326">
            60 761 -62 callsubr
            return
          </CharString>
          <CharString index="327">
            vlineto
            21 11 -12 -22 hvcurveto
            return
          </CharString>
          <CharString index="328">
            80 -48 52 -75 4 vhcurveto
            return
          </CharString>
          <CharString index="329">
            472 vlineto
            13 -7 6 -11 vhcurveto
            -95 hlineto
            -11 -7 -6 -13 hvcurveto
            -472 vlineto
            -12 7 -7 11 vhcurveto
            return
          </CharString>
          <CharString index="330">
            215 callsubr
            -40 1080 vstem
            1040 900 rmoveto
            -1080 -1080 1080 hlineto
            endchar
          </CharString>
          <CharString index="331">
            -35 11 -7 -6 -31 callgsubr
            return
          </CharString>
          <CharString index="332">
            18 119 callgsubr
            return
          </CharString>
          <CharString index="333">
            244 callgsubr
            301 vlineto
            return
          </CharString>
          <CharString index="334">
            -98 39 -74 144 -24 vhcurveto
            return
          </CharString>
          <CharString index="335">
            rmoveto
            322 callsubr
            hvcurveto
            -3 return
          </CharString>
          <CharString index="336">
            -290 85 37 158 50 return
          </CharString>
          <CharString index="337">
            vlineto
            -27 -11 -20 return
          </CharString>
          <CharString index="338">
            -27 callgsubr
            endchar
          </CharString>
          <CharString index="339">
            256 callsubr
            hstemhm
            380 240 hintmask 10100000
            584 -80 callsubr
            hintmask 01100000
            return
          </CharString>
          <CharString index="340">
            hlineto
            13 94 rlineto
            25 3 -14 11 -25 hhcurveto
            -105 hlineto
            -25 -8 -11 -25 -3 hvcurveto
            -13 -94 rlineto
            return
          </CharString>
          <CharString index="341">
            25 19 16 24 -10 hvcurveto
            -198 500 198 500 rlineto
            24 10 -19 16 -25 hhcurveto
            return
          </CharString>
          <CharString index="342">
            52 25 16 41 52 277 callsubr
            return
          </CharString>
          <CharString index="343">
            -25 -19 -16 -24 10 hvcurveto
            198 -500 -198 -500 rlineto
            -24 -10 19 -16 25 hhcurveto
            return
          </CharString>
          <CharString index="344">
            104 21 -0.5 20.5 return
          </CharString>
          <CharString index="345">
            150 hstem
            43 163 90 162 vstem
            296 return
          </CharString>
          <CharString index="346">
            25 11 10 26 hvcurveto
            97 -69 callgsubr
            return
          </CharString>
          <CharString index="347">
            hstemhm
            196 224 -130 419 return
          </CharString>
          <CharString index="348">
            vlineto
            -27 -7 -22 -40 vhcurveto
            return
          </CharString>
          <CharString index="349">
            hlineto
            40 7 -22 -26 hvcurveto
            return
          </CharString>
          <CharString index="350">
            42 0 143 callsubr
            return
          </CharString>
          <CharString index="351">
            149 165 vlineto
            return
          </CharString>
          <CharString index="352">
            -83 -121 vhcurveto
            return
          </CharString>
          <CharString index="353">
            168 163 vlineto
            25 11 10 26 hvcurveto
            114 -69 callgsubr
            -163 return
          </CharString>
          <CharString index="354">
            90 0 28 callgsubr
            return
          </CharString>
          <CharString index="355">
            hlineto
            -189 -57 -83 -121 hvcurveto
            -312 201 callsubr
          </CharString>
          <CharString index="356">
            hintmask 11111000
            -14 hlineto
            -17 -7 -5 -19 hvcurveto
            -72 vlineto
            -19 7 -4 17 vhcurveto
            hintmask 11110100
            14 return
          </CharString>
          <CharString index="357">
            -181 305 callgsubr
            175 vlineto
            return
          </CharString>
          <CharString index="358">
            21 259.5 24.5 return
          </CharString>
          <CharString index="359">
            8 callgsubr
            -423 vlineto
            -27 return
          </CharString>
          <CharString index="360">
            189 57 83 122 hvcurveto
            return
          </CharString>
          <CharString index="361">
            0 379 -379 680 return
          </CharString>
          <CharString index="362">
            hstem
            40 419 vstem
            return
          </CharString>
          <CharString index="363">
            -193 193 return
          </CharString>
          <CharString index="364">
            137 48 119 95 130 hstem
            47 163 97 163 vstem
            293 return
          </CharString>
          <CharString index="365">
            452 vlineto
            12 8 7 10 vhcurveto
            33 hlineto
            10 8 -7 -12 hvcurveto
            -452 vlineto
            return
          </CharString>
          <CharString index="366">
            -106 callsubr
            hintmask 10011100
            return
          </CharString>
          <CharString index="367">
            0 290 callsubr
            return
          </CharString>
          <CharString index="368">
            249 -101 callgsubr
            return
          </CharString>
          <CharString index="369">
            118 callsubr
            hstemhm
            return
          </CharString>
          <CharString index="370">
            171 callgsubr
            137 217 return
          </CharString>
          <CharString index="371">
            vlineto
            -27 -9 -20 -35 vhcurveto
            -64 hlineto
            return
          </CharString>
          <CharString index="372">
            53 176 rlineto
            24 hlineto
            return
          </CharString>
          <CharString index="373">
            274 46 274 vstem
            return
          </CharString>
          <CharString index="374">
            36 31 callgsubr
            return
          </CharString>
          <CharString index="375">
            -5 150 -124 -21 223 150 -26 150 78 150 hstemhm
            return
          </CharString>
          <CharString index="376">
            -72 callsubr
            endchar
          </CharString>
          <CharString index="377">
            757 -62 callsubr
            rrcurveto
            return
          </CharString>
          <CharString index="378">
            735 -196 220 callgsubr
            return
          </CharString>
          <CharString index="379">
            -32 -6 14 16 hvcurveto
            return
          </CharString>
          <CharString index="380">
            120 157 vlineto
            return
          </CharString>
          <CharString index="381">
            -65 callgsubr
            hintmask 11110000
            return
          </CharString>
          <CharString index="382">
            -94 callgsubr
            hintmask 10111010
            return
          </CharString>
          <CharString index="383">
            -20 309 -198 206 126 205 -197 309 hstemhm
            return
          </CharString>
          <CharString index="384">
            vvcurveto
            -51 callgsubr
            -111 hlineto
            -23 -7 -7 -24 hvcurveto
            return
          </CharString>
          <CharString index="385" raw="1">
            f98cf726 1d0b  
          </CharString>
          <CharString index="386">
            111 hlineto
            26 7 8 26 hvcurveto
            endchar
          </CharString>
          <CharString index="387">
            hvcurveto
            -121 vlineto
            return
          </CharString>
          <CharString index="388">
            618 -418 218 -214.5 211 hintmask 10010010
            return
          </CharString>
          <CharString index="389">
            40 146 callgsubr
            return
          </CharString>
          <CharString index="390">
            rlineto
            -21 -14 10 -15 25 hhcurveto
            85 hlineto
            25 12 15 21 14 hvcurveto
            return
          </CharString>
          <CharString index="391">
            vlineto
            71 -32 48 -135 -135 -34 -48 -71 vhcurveto
            -140 vlineto
            return
          </CharString>
          <CharString index="392">
            -72 -7 -54 -54 -94 vvcurveto
            -108 vlineto
            -85 66 -63 128 vhcurveto
            return
          </CharString>
          <CharString index="393">
            hlineto
            32 6 -13 -16 hvcurveto
            -27 vlineto
            -16 -6 -14 -32 vhcurveto
            endchar
          </CharString>
          <CharString index="394">
            139 hstemhm
            91 168 3 163 return
          </CharString>
          <CharString index="395">
            -83 -122 vhcurveto
            -341 vlineto
            -122 return
          </CharString>
          <CharString index="396">
            139 hstem
            155 168 return
          </CharString>
          <CharString index="397">
            170 callsubr
            hstemhm
            return
          </CharString>
          <CharString index="398">
            40 -79 callgsubr
            return
          </CharString>
          <CharString index="399">
            hstem
            -210 419 vstem
            return
          </CharString>
          <CharString index="400">
            vlineto
            -85 43 -58 174 return
          </CharString>
          <CharString index="401">
            133 118 133 return
          </CharString>
          <CharString index="402">
            193 300 callsubr
            return
          </CharString>
          <CharString index="403">
            hstem
            384 231 vstem
            return
          </CharString>
          <CharString index="404">
            226 hintmask 11110100
            return
          </CharString>
          <CharString index="405">
            18 365 callgsubr
            return
          </CharString>
          <CharString index="406" raw="1">
            711ffb5f 070b  
          </CharString>
          <CharString index="407">
            hstemhm
            58 228 return
          </CharString>
          <CharString index="408">
            hstemhm
            69 222 return
          </CharString>
          <CharString index="409">
            1 95 callsubr
            -45 callgsubr
            return
          </CharString>
          <CharString index="410">
            -104 callsubr
            119 -101 callgsubr
            return
          </CharString>
          <CharString index="411">
            73 callgsubr
            114 -69 callgsubr
            return
          </CharString>
          <CharString index="412">
            0 187 34 180 -124 175 81 187 hstemhm
            return
          </CharString>
          <CharString index="413">
            201 227 return
          </CharString>
          <CharString index="414">
            204 -144 return
          </CharString>
          <CharString index="415">
            11 -20 -26 vhcurveto
            return
          </CharString>
          <CharString index="416">
            -106 callsubr
            153 callgsubr
            return
          </CharString>
          <CharString index="417">
            hstemhm
            200 222 -132 419 -130 222 return
          </CharString>
          <CharString index="418">
            -104 callsubr
            24 hlineto
            -77 63 -63 77 vhcurveto
            return
          </CharString>
          <CharString index="419">
            rlineto
            -19 -12 -12 -13 -22 vvcurveto
            -21 12 -13 19 -12 vhcurveto
            return
          </CharString>
          <CharString index="420">
            63 69 21 329 21 1 21 4 21 168 21 return
          </CharString>
          <CharString index="421">
            122 -60 83 -249 -247 -61 -83 -122 vhcurveto
            return
          </CharString>
          <CharString index="422">
            -107 callgsubr
            hintmask 11010000
            return
          </CharString>
          <CharString index="423">
            20 callsubr
            hintmask 10100000
            return
          </CharString>
          <CharString index="424">
            -104 callsubr
            134 return
          </CharString>
          <CharString index="425">
            3 0 148 callsubr
            return
          </CharString>
          <CharString index="426">
            -306 -106 callsubr
            return
          </CharString>
          <CharString index="427">
            hstemhm
            195 227 return
          </CharString>
          <CharString index="428">
            -41 hlineto
            7 46 rlineto
            return
          </CharString>
          <CharString index="429">
            -25 -6 -11 -25 return
          </CharString>
          <CharString index="430">
            34 223 hstemhm
            return
          </CharString>
          <CharString index="431">
            323 callgsubr
            -125 419 -129 224 return
          </CharString>
          <CharString index="432">
            -15 175 126 157 117 175 hstemhm
            return
          </CharString>
          <CharString index="433">
            -40 533 -350 166 285 166 hstemhm
            return
          </CharString>
          <CharString index="434">
            -240 vlineto
            -27 -12 -20 -68 -67 130 callgsubr
            return
          </CharString>
          <CharString index="435">
            348 callsubr
            endchar
          </CharString>
          <CharString index="436">
            11 callgsubr
            endchar
          </CharString>
          <CharString index="437">
            vlineto
            16 6 14 32 vhcurveto
            return
          </CharString>
          <CharString index="438">
            720 301 callsubr
            return
          </CharString>
          <CharString index="439">
            275 hstem
            55 274 return
          </CharString>
          <CharString index="440">
            rmoveto
            -104 callgsubr
            return
          </CharString>
          <CharString index="441">
            419 -323 230 return
          </CharString>
          <CharString index="442">
            rmoveto
            -102 callsubr
            return
          </CharString>
          <CharString index="443">
            111 156 callgsubr
            return
          </CharString>
          <CharString index="444">
            -25 vhcurveto
            -75 hlineto
            -25 -14 return
          </CharString>
          <CharString index="445">
            -15 196 728 111 232 callgsubr
            return
          </CharString>
          <CharString index="446">
            0 271 callsubr
            return
          </CharString>
          <CharString index="447">
            -101 callgsubr
            495 vlineto
            122 return
          </CharString>
          <CharString index="448">
            -15 181 132 165 67 190 hstem
            return
          </CharString>
          <CharString index="449">
            -653 1008 210 hstem
            -103 207 vstem
            return
          </CharString>
          <CharString index="450">
            rmoveto
            13 5 3 4 11 hhcurveto
            return
          </CharString>
          <CharString index="451">
            107 -107 callgsubr
            return
          </CharString>
          <CharString index="452">
            hstemhm
            306 callsubr
            return
          </CharString>
          <CharString index="453">
            345 375 hstem
            return
          </CharString>
          <CharString index="454">
            hstemhm
            290 419 return
          </CharString>
          <CharString index="455">
            230 callsubr
            -67 -66 -11 20 27 vhcurveto
            return
          </CharString>
          <CharString index="456">
            191 336 295 callsubr
            return
          </CharString>
          <CharString index="457">
            559 hmoveto
            189 57 83 121 hvcurveto
            return
          </CharString>
          <CharString index="458">
            140 451 hstem
            224 553 vstem
            return
          </CharString>
          <CharString index="459">
            0 189 85 190 65 191 hstem
            return
          </CharString>
          <CharString index="460">
            19 682 hstem
            -243 1486 vstem
            return
          </CharString>
          <CharString index="461">
            230 callsubr
            -73 -72 130 callgsubr
            return
          </CharString>
          <CharString index="462">
            182 169 193 156 callgsubr
            return
          </CharString>
          <CharString index="463">
            21 -21 351 166 183 -20 hstem
            return
          </CharString>
          <CharString index="464">
            151 callgsubr
            69 227 return
          </CharString>
          <CharString index="465">
            -121 -56 callgsubr
            return
          </CharString>
          <CharString index="466">
            36 rmoveto
            -70 callsubr
            return
          </CharString>
          <CharString index="467">
            -306 -90 900 hstem
            5 337 vstem
            return
          </CharString>
          <CharString index="468">
            209 115 220 callsubr
            return
          </CharString>
          <CharString index="469">
            -114 vlineto
            -26 return
          </CharString>
          <CharString index="470">
            122 -59 83 return
          </CharString>
          <CharString index="471">
            hvcurveto
            -243 vlineto
            return
          </CharString>
          <CharString index="472">
            vhcurveto
            -119 hlineto
            return
          </CharString>
        <CharString name=".notdef">
          -40 50 700 50 hstem
          100 50 700 50 vstem
          900 -4 rmoveto
          728 -107 callgsubr
          -728 -106 callsubr
          -728 -104 callsubr
          728 -101 callgsubr
          -50 14 rmoveto
          -700 700 700 hlineto
          endchar
        </CharString>
        <CharString name="A">
          -25 callgsubr
          hstemhm
          54 219 177 226 hintmask 10111000
          -93 callgsubr
          hintmask 01111000
          76 callsubr
          hintmask 10111000
          -105 callsubr
          endchar
        </CharString>
        <CharString name="A.s_v">
          117 callsubr
          274 callgsubr
          157 226 hintmask 10111000
          477 470 13 callsubr
          -10 -302 rmoveto
          hintmask 01111000
          273 callsubr
          hintmask 10111000
          -38 callsubr
          endchar
        </CharString>
        <CharString name="A.salt">
          103 callgsubr
          323 callgsubr
          165 224 hintmask 10111000
          29 callgsubr
          hintmask 01111000
          244 callsubr
          hintmask 10111000
          -48 callgsubr
          endchar
        </CharString>
        <CharString name="A.salt_s_v">
          0 118 callgsubr
          hstemhm
          199 219 159 224 hintmask 10111000
          418 457 59 callsubr
          hintmask 01111000
          273 callgsubr
          hintmask 10111000
          -48 callsubr
          endchar
        </CharString>
        <CharString name="A.salt_v">
          0 369 -183 183 176 191 hstemhm
          200 219 157 224 hintmask 10111000
          419 498 rmoveto
          27 8 20 71 70 8 -20 -27 vhcurveto
          -129 -157 vlineto
          -332 vmoveto
          hintmask 01111000
          149 157 vlineto
          hintmask 10111000
          -149 vlineto
          -25 11 -12 25 vhcurveto
          152 hlineto
          25 11 12 25 hvcurveto
          495 vlineto
          121 -52 83 -249 -248 -51 245 callsubr
          -495 vlineto
          -25 11 -12 25 vhcurveto
          147 hlineto
          25 11 12 25 hvcurveto
          endchar
        </CharString>
        <CharString name="A.v">
          -19 callsubr
          hstemhm
          199 219 157 226 hintmask 10111000
          475 510 61 callgsubr
          -152 348 callgsubr
          138 callgsubr
          hintmask 01111000
          140 157 vlineto
          hintmask 10111000
          -140 vlineto
          -25 14 -87 callsubr
          151 -101 callgsubr
          264 vlineto
          69 -10 15 -29 76 vhcurveto
          -87 227 rlineto
          25 -9 -15 8 -26 hhcurveto
          -259 hlineto
          -26 -16 -8 -25 -9 hvcurveto
          -77 -227 rlineto
          -29 -76 -10 -15 -69 vvcurveto
          -264 184 callgsubr
          25 11 11 25 hvcurveto
          endchar
        </CharString>
        <CharString name="AE">
          18 callgsubr
        </CharString>
        <CharString name="AE.salt">
          360 0 189 -4 183 -93 6 callsubr
          323 callgsubr
          165 227 hintmask 10111100
          283 489 rmoveto
          27 12 20 71 vhcurveto
          82 hlineto
          hintmask 01011100
          -168 -165 vlineto
          hintmask 10111100
          -332 vmoveto
          hintmask 01011100
          244 callsubr
          hintmask 10111100
          -149 -104 callsubr
          444 -85 callsubr
          -253 86 172 -39 callgsubr
          -39 callsubr
          vhcurveto
          -172 77 253 -85 callsubr
          -561 hlineto
          -248 -55 -83 -121 hvcurveto
          -480 -81 callsubr
          endchar
        </CharString>
        <CharString name="AE.salt_v">
          0 189 -4 183 -93 6 callsubr
          hstemhm
          179 203 98 202 hintmask 10111100
          382 489 rmoveto
          27 9 20 40 vhcurveto
          49 hlineto
          hintmask 01011100
          -168 -98 vlineto
          hintmask 10111100
          -332 vmoveto
          hintmask 01011100
          149 98 vlineto
          hintmask 10111100
          -149 -104 callsubr
          269 -85 callsubr
          -103 86 102 -39 callgsubr
          -39 callsubr
          vhcurveto
          -102 77 103 -85 callsubr
          -356 hlineto
          -195 -55 -83 -121 hvcurveto
          -480 -104 callsubr
          131 158 callsubr
        </CharString>
        <CharString name="AE.v">
          0 189 -13 182 -83 6 callsubr
          hstemhm
          169 203 98 202 hintmask 10111100
          442 514 343 callsubr
          9 hlineto
          hintmask 01011100
          -173 -87 vlineto
          hintmask 10111100
          -11 -322 rmoveto
          hintmask 01011100
          140 98 vlineto
          hintmask 10111100
          -140 -104 callsubr
          269 -85 callsubr
          -103 86 102 -39 callgsubr
          -39 callsubr
          vhcurveto
          -102 77 103 -85 callsubr
          -420 hlineto
          -34 -17 -10 -31 -11 hvcurveto
          -95 -239 rlineto
          -19 -50 -10 -41 -59 vvcurveto
          -254 -104 callsubr
          131 158 callsubr
        </CharString>
        <CharString name="Aacute">
          -25 callgsubr
          hstemhm
          54 219 -118 260 callgsubr
          -93 callgsubr
          hintmask 01110100
          76 callsubr
          hintmask 10110100
          -105 callsubr
          hintmask 10101000
          265 760 -99 callsubr
          endchar
        </CharString>
        <CharString name="Aacute.salt">
          103 callgsubr
          323 callgsubr
          -115 419 -139 224 hintmask 10110100
          29 callgsubr
          hintmask 01110100
          244 callsubr
          hintmask 10110100
          -48 callgsubr
          hintmask 10101000
          268 760 -99 callsubr
          endchar
        </CharString>
        <CharString name="Aacute.salt_v">
          0 118 callgsubr
          181 callsubr
          hintmask 10101000
          673 -8 callsubr
          hintmask 10110100
          94 -256 59 callsubr
          hintmask 01110100
          273 callgsubr
          hintmask 10110100
          -48 callsubr
          endchar
        </CharString>
        <CharString name="Aacute.v">
          117 callsubr
          274 callgsubr
          -129 419 -133 226 hintmask 10110100
          477 470 13 callsubr
          -10 -302 rmoveto
          hintmask 01110100
          273 callsubr
          hintmask 10110100
          -38 callsubr
          hintmask 10101000
          254 720 -99 callsubr
          endchar
        </CharString>
        <CharString name="Abreve">
          -9 callgsubr
        </CharString>
        <CharString name="Abreve.salt">
          103 callgsubr
          19 223 323 callgsubr
          -132 87 callsubr
          -137 224 hintmask 10111001
          29 callgsubr
          hintmask 01011001
          244 callsubr
          hintmask 10111001
          -48 callgsubr
          hintmask 10010110
          302 -75 callsubr
          endchar
        </CharString>
        <CharString name="Abreve.salt_v">
          0 118 callgsubr
          19 223 hstemhm
          199 219 -135 87 callsubr
          -140 224 hintmask 10111001
          418 457 59 callsubr
          hintmask 01011001
          273 callgsubr
          hintmask 10111001
          -48 callsubr
          hintmask 10010110
          299 821 -90 callgsubr
        </CharString>
        <CharString name="Abreve.v">
          117 callsubr
          34 223 274 callgsubr
          -136 87 callsubr
          -141 226 hintmask 10111001
          477 470 13 callsubr
          -10 -302 rmoveto
          hintmask 01111001
          273 callsubr
          hintmask 10111001
          -38 callsubr
          hintmask 10110110
          298 821 -90 callgsubr
        </CharString>
        <CharString name="Abreveacute">
          77 0 33 callsubr
          5 207 -96 154 callgsubr
          hintmask 1011100010000000
          -93 callgsubr
          hintmask 0111100010000000
          76 callsubr
          hintmask 1011100010000000
          -105 callsubr
          hintmask 1011010100000000
          -76 callgsubr
          hintmask 1011101000000000
          -95 305 -54 callgsubr
        </CharString>
        <CharString name="Abrevedotbelow">
          77 -240 199 41 33 callsubr
          -59 230 -55 154 callgsubr
          hintmask 1101110001000000
          -93 callgsubr
          hintmask 1011110001000000
          76 callsubr
          hintmask 1101110001000000
          -105 callsubr
          hintmask 1101101010000000
          -76 callgsubr
          hintmask 1101100100000000
          -138 -1137 -103 callsubr
          endchar
        </CharString>
        <CharString name="Abrevegrave">
          77 0 33 callsubr
          -96 207 5 154 callgsubr
          hintmask 1011100010000000
          -93 callgsubr
          hintmask 0111100010000000
          76 callsubr
          hintmask 1011100010000000
          -105 callsubr
          hintmask 1011010100000000
          -76 callgsubr
          hintmask 1011001010000000
          -335 305 -57 callgsubr
        </CharString>
        <CharString name="Abrevehookabove">
          160 callgsubr
          182 111 122 callsubr
          94 147 -125 154 callgsubr
          hintmask 1011110001000000
          -93 callgsubr
          hintmask 0111110001000000
          76 callsubr
          hintmask 1011110001000000
          -105 callsubr
          hintmask 1011101010000000
          -76 callgsubr
          hintmask 1011110100000000
          -113 120 -98 callgsubr
        </CharString>
        <CharString name="Abrevetilde">
          160 callgsubr
          36 166 -145 167 122 callsubr
          -154 418 -148 154 callgsubr
          hintmask 1011101000100000
          -93 callgsubr
          hintmask 0111101000100000
          76 callsubr
          hintmask 1011101000100000
          -105 callsubr
          hintmask 1011100101000000
          -76 callgsubr
          -218 127 rmoveto
          16 -2 rlineto
          hintmask 1011100010000000
          80 -12 14 -2 63 19 rrcurveto
          -84 callsubr
          hintmask 1011010010000000
          -95 callgsubr
          endchar
        </CharString>
        <CharString name="Acaron">
          -25 callgsubr
          32 175 -54 callsubr
          123 896 -15 callsubr
          hintmask 10110100
          133 callsubr
          endchar
        </CharString>
        <CharString name="Acircumflex">
          77 0 358 -182 182 169 193 81 176 hstemhm
          54 219 -118 419 -124 226 hintmask 10111010
          330 510 rmoveto
          12 5 6 5 8 hhcurveto
          25 hlineto
          8 6 -5 -12 5 hvcurveto
          47 -152 rlineto
          -157 hlineto
          -10 -322 rmoveto
          hintmask 01111010
          140 177 vlineto
          hintmask 10111010
          30 callgsubr
          endchar
        </CharString>
        <CharString name="Acircumflex.salt">
          103 callgsubr
          66 176 324 callsubr
          hintmask 10101010
          29 callgsubr
          hintmask 01101010
          244 callsubr
          hintmask 10101010
          -48 callgsubr
          hintmask 10110100
          53 111 callsubr
          endchar
        </CharString>
        <CharString name="Acircumflex.salt_v">
          0 118 callgsubr
          66 176 181 callsubr
          hintmask 10101010
          418 457 59 callsubr
          hintmask 01101010
          273 callgsubr
          hintmask 10101010
          -48 callsubr
          hintmask 10110100
          50 721 -91 callgsubr
        </CharString>
        <CharString name="Acircumflex.v">
          117 callsubr
          81 176 274 callgsubr
          -129 419 -133 226 hintmask 10111010
          469 37 callsubr
          145 -247 13 callsubr
          hintmask 10111010
          -10 -302 rmoveto
          hintmask 01111010
          273 callsubr
          hintmask 10111010
          -38 callsubr
          endchar
        </CharString>
        <CharString name="Acircumflexacute">
          106 callgsubr
          -167 207 -164 226 hintmask 10111001
          330 510 rmoveto
          12 5 6 5 8 hhcurveto
          25 hlineto
          8 6 -5 -12 5 hvcurveto
          47 -152 rlineto
          -157 hlineto
          -10 -322 rmoveto
          hintmask 01111001
          140 177 vlineto
          hintmask 10111001
          30 callgsubr
          hintmask 10111010
          384 445 -54 callgsubr
        </CharString>
        <CharString name="Acircumflexdotbelow">
          77 -240 199 41 72 callgsubr
          -324 230 -30 226 hintmask 1101110010000000
          -93 callgsubr
          hintmask 1011110010000000
          76 callsubr
          hintmask 1101110010000000
          -59 callsubr
          hintmask 1101101000000000
          137 -40 rlineto
          -107 callsubr
          hintmask 1101100100000000
          248 -997 -103 callsubr
          endchar
        </CharString>
        <CharString name="Acircumflexgrave">
          106 callgsubr
          -187 207 -144 226 hintmask 10111001
          330 510 rmoveto
          12 5 6 5 8 hhcurveto
          25 hlineto
          8 6 -5 -12 5 hvcurveto
          47 -152 rlineto
          -157 hlineto
          -10 -322 rmoveto
          hintmask 01111001
          140 177 vlineto
          hintmask 10111001
          30 callgsubr
          hintmask 10111010
          225 420 -57 callgsubr
        </CharString>
        <CharString name="Acircumflexhookabove">
          159 callsubr
          156 111 hstemhm
          54 219 -118 349 callgsubr
          hintmask 1011110100000000
          -93 callgsubr
          hintmask 0111110100000000
          76 callsubr
          hintmask 1011110100000000
          -59 callsubr
          hintmask 1011101000000000
          137 -40 rlineto
          -107 callsubr
          hintmask 1011110010000000
          422 234 -98 callgsubr
        </CharString>
        <CharString name="Acircumflextilde">
          159 callsubr
          26 138 callsubr
          hintmask 1010101010000000
          -93 callgsubr
          hintmask 0110101010000000
          76 callsubr
          hintmask 1010101010000000
          -105 callsubr
          hintmask 1011100100000000
          60 111 callsubr
          hintmask 1010100100000000
          168 257 -74 callgsubr
          hintmask 1010010100000000
          -95 callgsubr
          endchar
        </CharString>
        <CharString name="Adieresis">
          -13 callgsubr
        </CharString>
        <CharString name="Adieresis.salt">
          103 callgsubr
          25 187 323 callgsubr
          -149 216 callsubr
          -149 224 hintmask 10111001
          29 callgsubr
          hintmask 01011001
          244 callsubr
          hintmask 10111001
          -48 callgsubr
          hintmask 10010110
          281 724 -101 callsubr
          endchar
        </CharString>
        <CharString name="Adieresis.salt_v">
          0 118 callgsubr
          25 187 hstemhm
          199 219 -152 216 callsubr
          -152 224 hintmask 10111001
          418 457 59 callsubr
          hintmask 01011001
          273 callgsubr
          hintmask 10111001
          -48 callsubr
          hintmask 10010110
          278 684 -101 callsubr
          endchar
        </CharString>
        <CharString name="Adieresis.v">
          117 callsubr
          40 187 274 callgsubr
          -153 216 callsubr
          -153 226 hintmask 10110110
          697 -3 callsubr
          176 -250 13 callsubr
          hintmask 10011001
          -10 -302 rmoveto
          hintmask 01011001
          273 callsubr
          hintmask 10111001
          -65 callsubr
          hintmask 10011001
          -106 callgsubr
          endchar
        </CharString>
        <CharString name="Adotbelow">
          277 callgsubr
          hstemhm
          54 219 -23 230 -30 226 hintmask 11011010
          -93 callgsubr
          hintmask 10111010
          76 callsubr
          hintmask 11011010
          -105 callsubr
          hintmask 11010100
          171 -276 -103 callsubr
          endchar
        </CharString>
        <CharString name="Agrave">
          -25 callgsubr
          hstemhm
          54 219 -118 260 callgsubr
          -93 callgsubr
          hintmask 01110100
          76 callsubr
          hintmask 10110100
          -105 callsubr
          hintmask 10101000
          267 717 -91 callsubr
          endchar
        </CharString>
        <CharString name="Agrave.salt">
          103 callgsubr
          324 callsubr
          hintmask 10110100
          29 callgsubr
          hintmask 01110100
          244 callsubr
          hintmask 10110100
          -48 callgsubr
          hintmask 10101000
          260 717 -91 callsubr
          endchar
        </CharString>
        <CharString name="Agrave.salt_v">
          0 118 callgsubr
          181 callsubr
          hintmask 10101000
          168 callsubr
          hintmask 10110100
          92 -299 59 callsubr
          hintmask 01110100
          273 callgsubr
          hintmask 10110100
          -48 callsubr
          endchar
        </CharString>
        <CharString name="Agrave.v">
          117 callsubr
          274 callgsubr
          -129 419 -133 226 hintmask 10110100
          477 470 13 callsubr
          -10 -302 rmoveto
          hintmask 01110100
          273 callsubr
          hintmask 10110100
          -38 callsubr
          hintmask 10101000
          256 677 -91 callsubr
          endchar
        </CharString>
        <CharString name="Ahookabove">
          -25 callgsubr
          189 336 callsubr
          100 147 -70 -72 callgsubr
          hintmask 10111100
          166 731 -98 callgsubr
        </CharString>
        <CharString name="Amacron">
          -25 callgsubr
          40 165 -54 callsubr
          hintmask 10110100
          265 724 -90 callsubr
          endchar
        </CharString>
        <CharString name="Amacron.salt">
          103 callgsubr
          25 165 324 callsubr
          hintmask 10111010
          29 callgsubr
          hintmask 01011010
          244 callsubr
          hintmask 10111010
          -48 callgsubr
          hintmask 10010100
          258 724 -90 callsubr
          endchar
        </CharString>
        <CharString name="Amacron.salt_v">
          0 118 callgsubr
          25 165 181 callsubr
          hintmask 10111010
          418 457 59 callsubr
          hintmask 01011010
          273 callgsubr
          hintmask 10111010
          -48 callsubr
          hintmask 10010100
          255 684 -90 callsubr
          endchar
        </CharString>
        <CharString name="Amacron.v">
          117 callsubr
          40 165 274 callgsubr
          -129 419 -133 226 hintmask 10110100
          674 720 -90 callsubr
          150 -250 13 callsubr
          hintmask 10011010
          -10 -302 rmoveto
          hintmask 01011010
          273 callsubr
          hintmask 10111010
          -65 callsubr
          hintmask 10011010
          -106 callgsubr
          endchar
        </CharString>
        <CharString name="Aogonek">
          6 callgsubr
        </CharString>
        <CharString name="Aogonek.salt">
          83 301 callgsubr
          67 -21 185 183 176 191 323 callgsubr
          141 174.5 -150.5 224 hintmask 11111010
          672 191 callsubr
          hintmask 11111100
          321 callsubr
          hintmask 11111010
          34 -101 callgsubr
          495 vlineto
          121 -56 83 -249 -248 -55 245 callsubr
          -495 -81 callsubr
          149 165 -118 vlineto
          -21 -118 rlineto
          hintmask 11111100
          115 callsubr
          hintmask 11111010
          111 hlineto
          26 7 8 26 hvcurveto
          -389 649 rmoveto
          27 12 20 71 70 12 -20 -27 vhcurveto
          -129 -165 vlineto
          endchar
        </CharString>
        <CharString name="Aogonek.salt_v">
          301 callgsubr
          46 118 callgsubr
          hstemhm
          199 219 137 174.5 -152.5 224 hintmask 11011100
          803 191 callsubr
          321 callsubr
          hintmask 11011010
          32 -101 callgsubr
          455 vlineto
          121 -53 83 -249 -248 -52 245 callsubr
          -455 -81 callsubr
          hintmask 10111010
          129 159 -109 vlineto
          -19 -107 rlineto
          hintmask 11011100
          73 callsubr
          hintmask 11011010
          -385 609 rmoveto
          27 9 20 71 70 9 -20 -27 vhcurveto
          -109 -159 vlineto
          endchar
        </CharString>
        <CharString name="Aogonek.v">
          -146 140 202 182 149 193 274 callgsubr
          133 248 -224 226 hintmask 11111000
          801 -112 203 callgsubr
          321 callsubr
          hintmask 11110100
          36 -101 callgsubr
          244 vlineto
          69 -10 15 -29 76 vhcurveto
          -87 207 rlineto
          25 -9 -15 8 -26 hhcurveto
          -259 hlineto
          -26 -16 -8 -25 -9 hvcurveto
          -77 -207 rlineto
          -29 -76 -10 -15 -69 vvcurveto
          -244 184 callgsubr
          25 11 11 25 hvcurveto
          120 157 -89 vlineto
          -21 -118 rlineto
          hintmask 11111000
          73 callsubr
          hintmask 11110100
          -324 622 13 callsubr
          endchar
        </CharString>
        <CharString name="Aring">
          -2 callsubr
        </CharString>
        <CharString name="Aring.salt">
          83 0 368 -183 183 176 177 -19 -20 157 133 323 callgsubr
          -135 87 callsubr
          -134 224 hintmask 1010101100000000
          425 764 rmoveto
          -29 196 callgsubr
          29 vhcurveto
          35 vlineto
          26 8 14 49 50 9 -14 -26 vhcurveto
          hintmask 1010110010000000
          -142 -302 rmoveto
          27 12 20 71 70 12 -20 -27 vhcurveto
          -129 -165 vlineto
          -332 vmoveto
          hintmask 0101110010000000
          244 callsubr
          hintmask 1001110010000000
          -149 -25 callsubr
          495 vlineto
          77 -22 62 -81 34 vhcurveto
          hintmask 1001101100000000
          9 20 4 22 25 127 callgsubr
          -26 4 -23 10 -20 vhcurveto
          hintmask 1001110010000000
          -77 -35 -21 -60 -76 vvcurveto
          -495 -71 callgsubr
          hintmask 1010110010000000
          -106 callgsubr
          endchar
        </CharString>
        <CharString name="Aring.salt_v">
          0 349 -183 183 156 177 118 133 hstemhm
          200 219 -139 87 callsubr
          -138 224 hintmask 10110110
          557 725 rmoveto
          -29 196 callgsubr
          29 vhcurveto
          35 vlineto
          26 8 14 49 50 9 -14 -26 vhcurveto
          hintmask 10111001
          -138 -302 rmoveto
          27 8 20 71 70 8 -20 -27 vhcurveto
          -109 -157 vlineto
          -313 vmoveto
          hintmask 01111001
          130 157 vlineto
          hintmask 10111001
          -130 -25 callsubr
          456 vlineto
          77 -20 62 -79 34 vhcurveto
          hintmask 10110110
          9 20 4 22 25 127 callgsubr
          -26 4 -23 10 -20 vhcurveto
          hintmask 10111001
          -75 -35 -19 -60 -76 vvcurveto
          -456 -81 callsubr
          endchar
        </CharString>
        <CharString name="Aring.v">
          0 338 126 callgsubr
          461 133 hstemhm
          199 218 -134 87 callsubr
          -142 226 hintmask 10101100
          560 724 rmoveto
          -29 196 callgsubr
          29 vhcurveto
          35 vlineto
          26 8 14 49 50 9 -14 -26 vhcurveto
          -91 -285 343 callsubr
          17 hlineto
          11 3 -4 -13 5 hvcurveto
          42 -136 rlineto
          -140 hlineto
          hintmask 10110010
          -9 -302 rmoveto
          hintmask 01110010
          120 158 vlineto
          hintmask 10110010
          -120 -104 callsubr
          154 221 callgsubr
          234 vlineto
          59 -10 41 -19 50 vhcurveto
          hintmask 10101100
          -60 173 -8 21 -10 11 -17 5 rlinecurve
          30 25 10 35 41 127 callgsubr
          -41 10 -35 30 -25 vhcurveto
          hintmask 10110010
          -16 -5 -10 -12 -9 -20 -60 -173 rcurveline
          -19 -50 -10 -41 -59 vvcurveto
          -234 -104 callsubr
          146 158 callsubr
        </CharString>
        <CharString name="Atilde">
          -25 callgsubr
          33 138 callsubr
          hintmask 10110101
          -93 callgsubr
          hintmask 01110101
          76 callsubr
          hintmask 10110101
          -105 callsubr
          91 728 rmoveto
          16 -2 rlineto
          hintmask 10110010
          80 -12 14 -2 63 19 rrcurveto
          -84 callsubr
          hintmask 10101010
          -95 callgsubr
          endchar
        </CharString>
        <CharString name="Atilde.salt">
          103 callgsubr
          225 callsubr
          64 219 -125 418 -128 224 hintmask 10110101
          29 callgsubr
          hintmask 01010101
          244 callsubr
          hintmask 10110101
          -48 callgsubr
          hintmask 10010010
          84 728 -74 callgsubr
          hintmask 10001010
          -95 callgsubr
          endchar
        </CharString>
        <CharString name="Atilde.salt_v">
          0 118 callgsubr
          225 callsubr
          199 219 -128 418 -131 224 hintmask 10110101
          418 457 59 callsubr
          hintmask 01010101
          273 callgsubr
          hintmask 10110101
          -48 callsubr
          hintmask 10010010
          81 688 -74 callgsubr
          hintmask 10001010
          -95 callgsubr
          endchar
        </CharString>
        <CharString name="Atilde.v">
          117 callsubr
          140 callgsubr
          201 219 -129 418 -132 226 hintmask 10110101
          477 470 13 callsubr
          -10 -302 rmoveto
          hintmask 01110101
          273 callsubr
          hintmask 10110101
          -38 callsubr
          80 688 rmoveto
          16 -2 rlineto
          hintmask 10110010
          80 -12 14 -2 63 19 rrcurveto
          -84 callsubr
          hintmask 10101010
          -95 callgsubr
          endchar
        </CharString>
        <CharString name="B">
          41 callsubr
        </CharString>
        <CharString name="B.v">
          1 170 118 154 108 170 hstemhm
          201 225 114 199 -154 221 hintmask 11110100
          612 1 rmoveto
          128 66 63 101 hvcurveto
          92 vlineto
          94 -54 54 -72 7 vhcurveto
          hintmask 11111000
          44 19 15 38 51 vvcurveto
          48 vlineto
          88 -56 65 -136 vhcurveto
          -310 -97 callgsubr
          189 550 rmoveto
          76 hlineto
          32 6 -19 -21 hvcurveto
          -28 vlineto
          -21 -6 -19 -32 vhcurveto
          -76 hlineto
          -154 vmoveto
          hintmask 11110100
          121 hlineto
          32 6 -18 -21 hvcurveto
          -39 vlineto
          -21 -6 -19 -32 vhcurveto
          -121 hlineto
          endchar
        </CharString>
        <CharString name="C">
          -25 14 callsubr
          hstem
          58 228 vstem
          -76 callsubr
          endchar
        </CharString>
        <CharString name="C.s_v">
          118 callsubr
          hstem
          196 228 vstem
          755 -40 callsubr
          -10 callsubr
          endchar
        </CharString>
        <CharString name="C.v">
          14 callsubr
          hstem
          196 228 vstem
          755 -40 callsubr
          -270 68 callgsubr
          238 186 callgsubr
          -311 201 callsubr
        </CharString>
        <CharString name="Cacute">
          -25 0 349 callsubr
          -121 419 hintmask 11100000
          -76 callsubr
          hintmask 11010000
          244 796 -99 callsubr
          endchar
        </CharString>
        <CharString name="Cacute.v">
          262 callsubr
          196 228 -124 419 hintmask 11100000
          755 -40 callsubr
          -10 callsubr
          hintmask 11010000
          241 -8 callsubr
          endchar
        </CharString>
        <CharString name="Ccaron">
          -25 14 callsubr
          32 175 300 callsubr
          -151 298 callgsubr
          -76 callsubr
          72 218 callsubr
          hintmask 11101000
          133 callsubr
          endchar
        </CharString>
        <CharString name="Ccaron.v">
          118 callsubr
          257 callgsubr
          196 228 -124 298 callgsubr
          541 219 callgsubr
          hintmask 11101000
          133 callsubr
          77 -932 -79 callgsubr
          119 -107 callgsubr
          hintmask 11110000
          -10 callsubr
          endchar
        </CharString>
        <CharString name="Ccedilla">
          37 callgsubr
        </CharString>
        <CharString name="Ccedilla.v">
          40 155 callgsubr
          hstem
          196 228 vstem
          580 -56 rmoveto
          34 96 rlineto
          141 -87 callgsubr
          -270 68 callgsubr
          198 186 callgsubr
          -271 vlineto
          -114 51 -80 163 -9 vhcurveto
          -32 -87 161 callgsubr
          126 hlineto
          26 13 9 21 7 hvcurveto
          endchar
        </CharString>
        <CharString name="Ccircumflex">
          -25 14 callsubr
          346 callgsubr
          228 -151 298 callgsubr
          -76 callsubr
          9 797 -31 callsubr
        </CharString>
        <CharString name="Ccircumflex.v">
          118 callsubr
          81 176 hstemhm
          196 228 -124 298 callgsubr
          478 270 callsubr
          hintmask 11101000
          137 -40 rlineto
          -107 callsubr
          414 -717 -79 callgsubr
          119 -107 callgsubr
          hintmask 11110000
          -10 callsubr
          endchar
        </CharString>
        <CharString name="Cdotaccent">
          -25 14 callsubr
          40 199 300 callsubr
          -45 230 hintmask 11110000
          -76 callsubr
          hintmask 11101000
          131 760 -103 callsubr
          endchar
        </CharString>
        <CharString name="Cdotaccent.v">
          118 callsubr
          40 199 hstemhm
          196 228 -28 230 hintmask 11101000
          590 43 callgsubr
          323 -720 -79 callgsubr
          119 -107 callgsubr
          hintmask 11110000
          -10 callsubr
          endchar
        </CharString>
        <CharString name="D">
          93 319 callgsubr
          69 227 166 226 vstem
          -62 callgsubr
          endchar
        </CharString>
        <CharString name="D.s_v">
          0 189 300 191 hstem
          200 227 152 226 vstem
          119 callsubr
          endchar
        </CharString>
        <CharString name="D.v">
          319 callgsubr
          200 227 152 226 vstem
          350 callsubr
          312 vlineto
          121 -57 83 -189 vhcurveto
          -323 33 callgsubr
          105 242 callsubr
          -243 241 callsubr
          -105 hlineto
          endchar
        </CharString>
        <CharString name="Dcaron">
          93 129 callgsubr
          32 175 171 callgsubr
          -133 419 -120 297 callsubr
          -62 callgsubr
          108 743 -15 callsubr
          hintmask 11101000
          133 callsubr
          endchar
        </CharString>
        <CharString name="Dcaron.v">
          0 189 300 191 32 175 176 callgsubr
          -137 419 -130 297 callsubr
          119 callsubr
          104 703 -15 callsubr
          hintmask 11101000
          133 callsubr
          endchar
        </CharString>
        <CharString name="Dcroat">
          -50 callsubr
        </CharString>
        <CharString name="Dcroat.v">
          54 callgsubr
        </CharString>
        <CharString name="Ddotbelow">
          93 95 callsubr
          357 callsubr
          -38 230 -26 297 callsubr
          -62 callgsubr
          hintmask 11101000
          156 -429 -103 callsubr
          endchar
        </CharString>
        <CharString name="Delta">
          52 callgsubr
        </CharString>
        <CharString name="Dlinebelow">
          93 -222 165 57 357 callsubr
          -138 419 -115 297 callsubr
          -62 callgsubr
          hintmask 11101000
          245 -411 -90 callsubr
          endchar
        </CharString>
        <CharString name="E">
          1 192 callgsubr
          69 224 vstem
          569 hmoveto
          -103 callgsubr
          endchar
        </CharString>
        <CharString name="E.s_v">
          62 callsubr
          hstem
          200 224 vstem
          -37 callsubr
          endchar
        </CharString>
        <CharString name="E.salt">
          -10 340 callgsubr
          218 vstem
          -79 callsubr
          endchar
        </CharString>
        <CharString name="E.salt_s_v">
          62 callsubr
          hstem
          196 224 vstem
          790 36 -35 callgsubr
        </CharString>
        <CharString name="E.salt_v">
          192 callgsubr
          196 225 vstem
          791 359 callsubr
          -273 147 callgsubr
          253 20 callsubr
          152 callgsubr
          -253 151 callsubr
          273 -85 callsubr
          -313 14 callgsubr
          313 158 callsubr
        </CharString>
        <CharString name="E.v">
          192 callgsubr
          201 224 vstem
          755 -80 callsubr
          -70 callsubr
          -330 86 249 hlineto
          25 11 11 25 hvcurveto
          107 264 callgsubr
          77 330 hlineto
          25 11 11 25 hvcurveto
          117 vlineto
          25 -11 11 -25 vhcurveto
          -518 279 callgsubr
        </CharString>
        <CharString name="Eacute">
          -1 callgsubr
          hstemhm
          69 224 -146 298 callgsubr
          569 hmoveto
          -103 callgsubr
          hintmask 11101000
          425 796 -99 callsubr
          endchar
        </CharString>
        <CharString name="Eacute.salt">
          -10 -22 callgsubr
          hstemhm
          58 218 -129 298 callgsubr
          -79 callsubr
          hintmask 11101000
          -64 760 -99 callsubr
          endchar
        </CharString>
        <CharString name="Eacute.salt_v">
          62 callsubr
          240 callsubr
          hintmask 11101000
          673 -8 callsubr
          hintmask 11110000
          466 -677 -35 callgsubr
        </CharString>
        <CharString name="Eacute.v">
          62 callsubr
          210 callsubr
          hintmask 11110000
          673 756 -82 callgsubr
          hintmask 11101000
          -349 -43 rlineto
          -25 -3 -11 -8 -25 vvcurveto
          -96 vlineto
          -23 11 -13 23 3 vhcurveto
          hintmask 11110000
          430 -713 -9 callsubr
        </CharString>
        <CharString name="Ebreve">
          -1 callgsubr
          323 callsubr
          69 224 -163 87 callsubr
          -12 callgsubr
          459 897 45 callsubr
        </CharString>
        <CharString name="Ebreve.salt">
          -10 -22 callgsubr
          323 callsubr
          58 218 -136 87 callsubr
          hintmask 11111010
          -79 callsubr
          -20 861 45 callsubr
        </CharString>
        <CharString name="Ebreve.salt_v">
          62 callsubr
          323 callsubr
          196 224 -137 87 callsubr
          hintmask 11111010
          790 36 rmoveto
          -78 callsubr
          312 -101 callgsubr
          -73 821 45 callsubr
        </CharString>
        <CharString name="Ebreve.v">
          62 callsubr
          34 223 200 callgsubr
          -141 87 callsubr
          hintmask 11111010
          -37 callsubr
          481 857 45 callsubr
        </CharString>
        <CharString name="Ecaron">
          16 callsubr
        </CharString>
        <CharString name="Ecaron.salt">
          -10 -22 callgsubr
          257 callgsubr
          58 218 -132 -1 callsubr
          -209 896 -15 callsubr
          hintmask 11110100
          133 callsubr
          endchar
        </CharString>
        <CharString name="Ecaron.salt_v">
          62 callsubr
          32 175 240 callsubr
          hintmask 11111000
          790 36 rmoveto
          -78 callsubr
          312 -101 callgsubr
          -259 856 -15 callsubr
          hintmask 11110100
          133 callsubr
          endchar
        </CharString>
        <CharString name="Ecaron.v">
          62 callsubr
          32 175 210 callsubr
          hintmask 11111000
          -37 callsubr
          295 219 callgsubr
          hintmask 11110100
          -137 40 rlineto
          224 callsubr
          -36 8 -4 34 -13 vhcurveto
          137 -50 rlineto
          -4 10 10 -1 12 hhcurveto
          12 1 15 3 12 5 rrcurveto
          hintmask 11111000
          128 46 rlineto
          15 callgsubr
          231 callsubr
        </CharString>
        <CharString name="Ecircumflex">
          1 0 189 86 179 77 189 81 176 hstemhm
          69 224 -166 92 callsubr
          200 20 callgsubr
          hintmask 11110100
          -86 callgsubr
        </CharString>
        <CharString name="Ecircumflex.salt">
          -10 -22 callgsubr
          346 callgsubr
          218 -139 -1 callsubr
          -279 761 -62 callsubr
          rrcurveto
          hintmask 11110100
          -86 callgsubr
        </CharString>
        <CharString name="Ecircumflex.salt_v">
          62 callsubr
          81 176 240 callsubr
          hintmask 11111000
          468 270 callsubr
          hintmask 11110100
          137 -40 rlineto
          -107 callsubr
          hintmask 11111000
          459 -681 -35 callgsubr
        </CharString>
        <CharString name="Ecircumflex.v">
          62 callsubr
          81 176 210 callsubr
          hintmask 11111000
          468 757 -62 callsubr
          137 -40 rcurveline
          35 -11 7 6 -30 callgsubr
          -8 4 -34 13 vhcurveto
          -137 50 rlineto
          4 -10 -10 1 -12 hhcurveto
          -12 -1 -15 -3 -12 -5 rrcurveto
          hintmask 11110100
          -128 -46 rlineto
          -32 -13 -9 -4 192 callsubr
          7 -6 34 11 vhcurveto
          hintmask 11111000
          423 -717 -9 callsubr
        </CharString>
        <CharString name="Ecircumflexacute">
          1 0 48 callsubr
          -167 207 -12 callgsubr
          200 20 callgsubr
          hintmask 11110100
          137 -40 rlineto
          -107 callsubr
          hintmask 11111010
          384 445 -54 callgsubr
        </CharString>
        <CharString name="Ecircumflexdotbelow">
          1 -240 199 41 48 callsubr
          -334 230 hintmask 11111100
          569 hmoveto
          -103 callgsubr
          200 20 callgsubr
          hintmask 11111010
          137 -40 rlineto
          -107 callsubr
          hintmask 11111001
          238 -997 -103 callsubr
          endchar
        </CharString>
        <CharString name="Ecircumflexgrave">
          1 0 48 callsubr
          -187 207 -12 callgsubr
          200 20 callgsubr
          hintmask 11110100
          137 -40 rlineto
          -107 callsubr
          hintmask 11111010
          225 420 -57 callgsubr
        </CharString>
        <CharString name="Ecircumflexhookabove">
          180 callgsubr
          156 111 166 callsubr
          -22 147 hintmask 11111100
          569 hmoveto
          -103 callgsubr
          200 20 callgsubr
          hintmask 11111010
          137 -40 rlineto
          -107 callsubr
          hintmask 11111101
          422 234 -98 callgsubr
        </CharString>
        <CharString name="Ecircumflextilde">
          180 callgsubr
          26 119 callgsubr
          69 224 -166 418 hintmask 11101010
          569 hmoveto
          -103 callgsubr
          hintmask 11111010
          200 20 callgsubr
          hintmask 11111001
          137 -40 rlineto
          -107 callsubr
          hintmask 11101001
          168 257 -74 callgsubr
          hintmask 11100101
          -95 callgsubr
          endchar
        </CharString>
        <CharString name="Edieresis">
          -1 callgsubr
          40 187 hstemhm
          69 224 -180 216 callsubr
          -12 callgsubr
          438 760 35 callgsubr
        </CharString>
        <CharString name="Edieresis.salt">
          -10 -22 callgsubr
          40 187 hstemhm
          58 218 -153 216 callsubr
          hintmask 11111010
          -79 callsubr
          -41 724 35 callgsubr
        </CharString>
        <CharString name="Edieresis.salt_v">
          62 callsubr
          40 187 hstemhm
          196 224 -154 216 callsubr
          hintmask 11111010
          790 36 rmoveto
          -78 callsubr
          312 -101 callgsubr
          -94 684 35 callgsubr
        </CharString>
        <CharString name="Edieresis.v">
          62 callsubr
          40 187 200 callgsubr
          -158 216 callsubr
          hintmask 11111010
          -37 callsubr
          460 720 35 callgsubr
        </CharString>
        <CharString name="Edotaccent">
          -1 callgsubr
          40 199 hstemhm
          69 224 -82 230 hintmask 11111000
          569 hmoveto
          -103 callgsubr
          hintmask 11110100
          300 760 -103 callsubr
          endchar
        </CharString>
        <CharString name="Edotaccent.salt">
          -10 -22 callgsubr
          40 199 hstemhm
          58 218 -33 230 2 callgsubr
          hintmask 11110100
          -157 724 -103 callsubr
          endchar
        </CharString>
        <CharString name="Edotaccent.salt_v">
          62 callsubr
          40 199 hstemhm
          196 224 -34 230 hintmask 11110100
          580 43 callgsubr
          hintmask 11111000
          368 -684 -35 callgsubr
        </CharString>
        <CharString name="Edotaccent.v">
          62 callsubr
          40 199 200 callgsubr
          -38 230 hintmask 11110100
          580 43 callgsubr
          hintmask 11111000
          332 -720 -9 callsubr
        </CharString>
        <CharString name="Edotbelow">
          302 callsubr
          hstemhm
          69 224 -68 230 hintmask 11111000
          569 hmoveto
          -103 callgsubr
          hintmask 11110100
          314 186 callsubr
          endchar
        </CharString>
        <CharString name="Egrave">
          -1 callgsubr
          hstemhm
          69 224 -176 298 callgsubr
          569 hmoveto
          -103 callgsubr
          hintmask 11101000
          397 753 -91 callsubr
          endchar
        </CharString>
        <CharString name="Egrave.salt">
          -10 -22 callgsubr
          hstemhm
          58 218 -149 298 callgsubr
          -79 callsubr
          hintmask 11101000
          -82 717 -91 callsubr
          endchar
        </CharString>
        <CharString name="Egrave.salt_v">
          62 callsubr
          240 callsubr
          hintmask 11110000
          790 36 rmoveto
          -78 callsubr
          312 -101 callgsubr
          hintmask 11101000
          -115 677 -91 callsubr
          endchar
        </CharString>
        <CharString name="Egrave.v">
          62 callsubr
          210 callsubr
          hintmask 11110000
          -37 callsubr
          439 713 -66 callgsubr
          hintmask 11101000
          169 callsubr
        </CharString>
        <CharString name="Ehookabove">
          -1 callgsubr
          189 111 hstem
          69 224 50 147 vstem
          569 hmoveto
          -103 callgsubr
          304 767 -98 callgsubr
        </CharString>
        <CharString name="Emacron">
          -1 callgsubr
          40 165 hstemhm
          69 224 -166 92 callsubr
          hintmask 11110100
          405 194 callgsubr
          endchar
        </CharString>
        <CharString name="Emacron.salt">
          -10 -22 callgsubr
          40 165 hstemhm
          58 218 -129 -1 callsubr
          hintmask 11110100
          -64 724 -90 callsubr
          endchar
        </CharString>
        <CharString name="Emacron.salt_v">
          62 callsubr
          40 165 240 callsubr
          hintmask 11110100
          673 720 -90 callsubr
          hintmask 11111000
          464 -684 -35 callgsubr
        </CharString>
        <CharString name="Emacron.v">
          62 callsubr
          40 165 210 callsubr
          hintmask 11111000
          269 callgsubr
          hintmask 11110100
          -72 callsubr
          hintmask 11111000
          428 -720 -9 callsubr
        </CharString>
        <CharString name="Eng">
          53 callsubr
        </CharString>
        <CharString name="Eng.v">
          -90 192 -102 102 418 252 callgsubr
          hintmask 01111000
          200 512 rmoveto
          -476 17 callgsubr
          437 147 callsubr
          -323 vlineto
          -28 -6 -20 -35 vhcurveto
          -21 -106 callsubr
          hintmask 10111000
          -120 -104 callsubr
          45 hlineto
          253 callsubr
          397 vlineto
          122 -61 82 -239 vhcurveto
          hintmask 01111000
          -239 -61 -82 -122 hvcurveto
          endchar
        </CharString>
        <CharString name="Eogonek">
          1 214 callgsubr
          69 224 64 248 vstem
          605 191 callsubr
          321 callsubr
          34 hlineto
          -103 callgsubr
          264 hlineto
          -9 -51 rlineto
          73 callsubr
          endchar
        </CharString>
        <CharString name="Eogonek.salt">
          -10 214 callgsubr
          58 218 70 248 vstem
          594 191 callsubr
          321 callsubr
          34 hlineto
          25 11 11 25 hvcurveto
          49 callgsubr
          202 20 callsubr
          107 21 callsubr
          151 callsubr
          221 -85 callsubr
          -254 14 callgsubr
          54 hlineto
          -9 -51 rlineto
          73 callsubr
          endchar
        </CharString>
        <CharString name="Eogonek.salt_v">
          306 callgsubr
          196 224 122 248 vstem
          790 -112 203 callgsubr
          321 callsubr
          34 hlineto
          25 11 11 25 hvcurveto
          -78 callsubr
          112 hlineto
          -9 -51 rlineto
          73 callsubr
          endchar
        </CharString>
        <CharString name="Eogonek.v">
          306 callgsubr
          200 224 118 248 vstem
          790 -112 203 callgsubr
          321 callsubr
          34 -29 callgsubr
          -330 76 261 callsubr
          95 264 callgsubr
          67 330 hlineto
          25 11 11 25 hvcurveto
          113 vlineto
          25 -11 11 -25 vhcurveto
          -518 -53 callgsubr
          318 hlineto
          -9 -51 rlineto
          73 callsubr
          endchar
        </CharString>
        <CharString name="Eth">
          -50 callsubr
        </CharString>
        <CharString name="Eth.v">
          54 callgsubr
        </CharString>
        <CharString name="Etilde">
          -1 callgsubr
          140 callgsubr
          69 224 -166 418 hintmask 11110100
          569 hmoveto
          -103 callgsubr
          231 330 callgsubr
          hintmask 11110010
          80 -12 14 -2 63 19 rrcurveto
          -84 callsubr
          hintmask 11101010
          -95 callgsubr
          endchar
        </CharString>
        <CharString name="Euro">
          -5 0 181 38 119 41 119 39 183 hstemhm
          40 460 -422 218 hintmask 11110100
          604 36 rmoveto
          109 -107 callgsubr
          hintmask 11111000
          -211 hlineto
          -45 -13 15 23 -3 hvcurveto
          286 callgsubr
          -180 41 286 callgsubr
          hintmask 11110100
          -179 hlineto
          22 3 13 17 44 hhcurveto
          211 -101 callgsubr
          111 -107 callgsubr
          -244 -14 callgsubr
          -17 vlineto
          249 callsubr
          -41 hlineto
          249 callsubr
          -15 hlineto
          -121 57 -83 189 vhcurveto
          244 158 callsubr
        </CharString>
        <CharString name="F">
          85 callsubr
        </CharString>
        <CharString name="F.v">
          21 -21 234 192 104 191 hstem
          306 callsubr
          vstem
          392 hmoveto
          25 11 12 25 hvcurveto
          197 246 20 callsubr
          120 -107 callgsubr
          -246 104 327 hlineto
          25 11 11 25 hvcurveto
          119 170 callgsubr
          -648 vlineto
          -25 11 -12 25 vhcurveto
          endchar
        </CharString>
        <CharString name="G">
          66 callgsubr
          136 callgsubr
          143 227 hintmask 10111000
          619 -80 callsubr
          hintmask 01111000
          309 126 callsubr
          -77 callgsubr
          endchar
        </CharString>
        <CharString name="G.s_v">
          207 callsubr
          320 callsubr
          151 227 hintmask 10111000
          202 callgsubr
          hintmask 01111000
          289 126 callsubr
          -12 callsubr
          endchar
        </CharString>
        <CharString name="G.v">
          74 callgsubr
          320 callsubr
          151 227 hintmask 10111000
          202 callgsubr
          hintmask 01111000
          309 126 callsubr
          -156 -105 vlineto
          -40 -6 22 27 hvcurveto
          239 162 callgsubr
          216 -94 callsubr
          -258 248 callsubr
        </CharString>
        <CharString name="Gbreve">
          66 callgsubr
          34 223 136 callgsubr
          -128 161 110 227 -221 157 hintmask 10111010
          619 -80 callsubr
          hintmask 01111010
          309 275 callsubr
          -77 callgsubr
          hintmask 10110101
          287 16 callgsubr
          endchar
        </CharString>
        <CharString name="Gbreve.v">
          207 callsubr
          34 223 320 callsubr
          -139 87 callsubr
          -144 227 hintmask 10111001
          202 callgsubr
          hintmask 01111001
          278 callgsubr
          hintmask 10111001
          -12 callsubr
          hintmask 10110110
          276 857 -90 callgsubr
        </CharString>
        <CharString name="Gcaron">
          66 callgsubr
          32 175 136 callgsubr
          -140 419 -136 227 hintmask 10101010
          619 -80 callsubr
          hintmask 01101010
          309 275 callsubr
          -77 callgsubr
          82 218 callsubr
          hintmask 10110100
          133 callsubr
          endchar
        </CharString>
        <CharString name="Gcircumflex">
          5 callsubr
        </CharString>
        <CharString name="Gcircumflex.v">
          207 callsubr
          81 176 320 callsubr
          -132 419 -136 227 hintmask 10101010
          202 callgsubr
          hintmask 01101010
          289 275 callsubr
          -12 callsubr
          27 37 callsubr
          endchar
        </CharString>
        <CharString name="Gcommaaccent">
          55 96 callsubr
          94 callgsubr
          136 callgsubr
          -27 232 -62 227 hintmask 11101101
          619 -80 callsubr
          hintmask 11011101
          309 -94 callgsubr
          hintmask 11101101
          -77 callgsubr
          61 -362 rmoveto
          hintmask 11101010
          -82 callsubr
        </CharString>
        <CharString name="Gcommaaccent.v">
          229 callsubr
          189 298 193 320 callsubr
          -37 232 -44 227 hintmask 11111010
          764 291 callsubr
          278 callgsubr
          -12 callsubr
          51 -330 rmoveto
          hintmask 11110100
          -60 callgsubr
        </CharString>
        <CharString name="Gdotaccent">
          66 callgsubr
          40 199 136 callgsubr
          -25 230 -62 227 hintmask 10111010
          619 -80 callsubr
          hintmask 01111010
          309 275 callsubr
          -77 callgsubr
          hintmask 10110100
          150 760 -103 callsubr
          endchar
        </CharString>
        <CharString name="Gdotaccent.v">
          207 callsubr
          40 199 320 callsubr
          -36 230 -43 227 hintmask 10111010
          202 callgsubr
          hintmask 01111010
          289 275 callsubr
          -12 callsubr
          hintmask 10110100
          139 43 callgsubr
          endchar
        </CharString>
        <CharString name="Germandbls">
          27 callsubr
        </CharString>
        <CharString name="Germandbls.v">
          0 185 350 185 176 callgsubr
          88 226 -149 218 hintmask 11101000
          427 36 rmoveto
          499 vlineto
          hintmask 11110000
          69 hlineto
          17 4 -13 -15 -2 hvcurveto
          hintmask 11101000
          -23 -167 rlineto
          -37 -5 10 -19 32 hhcurveto
          36 hlineto
          16 11 -7 -16 hvcurveto
          -53 vlineto
          -16 -11 -7 -16 vhcurveto
          -52 -106 callsubr
          -113 -104 callsubr
          118 hlineto
          110 69 64 102 hvcurveto
          123 vlineto
          88 -40 51 -52 9 vhcurveto
          18 92 rlineto
          hintmask 11110000
          115 22 -48 76 -118 hhcurveto
          -356 hlineto
          -24 -12 -12 -24 328 callgsubr
          hintmask 11101000
          -106 callgsubr
          endchar
        </CharString>
        <CharString name="Gmacron">
          66 callgsubr
          40 165 136 callgsubr
          -114 419 267 callgsubr
          hintmask 10111010
          619 -80 callsubr
          hintmask 01111010
          309 275 callsubr
          -77 callgsubr
          hintmask 10110100
          250 194 callgsubr
          endchar
        </CharString>
        <CharString name="H">
          106 0 243 callgsubr
          171 callgsubr
          167 227 hintmask 10110000
          260 109 callsubr
          321 callgsubr
          hintmask 10110000
          -222 197 callsubr
          648 275 callgsubr
          320 callgsubr
          hintmask 01110000
          217 275 callgsubr
          122 callgsubr
          endchar
        </CharString>
        <CharString name="H.s_v">
          0 447 -209 209 176 callgsubr
          146 227 hintmask 10110000
          391 109 callsubr
          202 146 vlineto
          hintmask 10110000
          -202 197 callsubr
          608 275 callgsubr
          -197 -146 vlineto
          hintmask 01110000
          197 275 callgsubr
          -32 callsubr
          endchar
        </CharString>
        <CharString name="H.v">
          0 243 callgsubr
          176 callgsubr
          146 227 hintmask 10110000
          391 109 callsubr
          222 146 vlineto
          hintmask 10110000
          -222 197 callsubr
          648 275 callgsubr
          -217 -146 vlineto
          hintmask 01110000
          217 275 callgsubr
          122 callgsubr
          endchar
        </CharString>
        <CharString name="Hbar">
          25 callgsubr
        </CharString>
        <CharString name="Hbar.v">
          0 347 -199 199 78 169 hstemhm
          199 224 153 224 hintmask 10111000
          423 347 rmoveto
          78 153 -78 vlineto
          -153 -311 rmoveto
          hintmask 01111000
          112 153 vlineto
          hintmask 10111000
          -112 -25 callsubr
          389 13 vlineto
          239 callsubr
          -13 90 104 callgsubr
          -152 -106 callsubr
          -90 -153 90 -107 callgsubr
          -152 -106 callsubr
          -90 -13 142 callsubr
          -97 161 callsubr
          -389 hlineto
          -14 callsubr
          endchar
        </CharString>
        <CharString name="Hbrevebelow">
          1 callgsubr
        </CharString>
        <CharString name="Hcircumflex">
          106 0 243 callgsubr
          334 176 171 callgsubr
          167 227 hintmask 10111000
          260 -80 callsubr
          hintmask 01111000
          321 callgsubr
          hintmask 10111000
          -222 -57 callsubr
          hintmask 01111000
          648 126 callsubr
          320 callgsubr
          hintmask 01111000
          217 126 callsubr
          122 callgsubr
          242 42 callsubr
          endchar
        </CharString>
        <CharString name="Hcircumflex.v">
          0 447 -209 209 314 176 176 callgsubr
          146 227 hintmask 10111000
          318 callgsubr
          hintmask 01111000
          202 146 vlineto
          hintmask 10111000
          -202 -57 callsubr
          hintmask 01111000
          608 126 callsubr
          -197 -146 vlineto
          hintmask 01111000
          197 126 callsubr
          -32 callsubr
          232 757 -91 callgsubr
        </CharString>
        <CharString name="Hdotbelow">
          106 95 callsubr
          243 callgsubr
          171 callgsubr
          -31 230 -32 227 hintmask 11010100
          260 -80 callsubr
          hintmask 10110100
          321 callgsubr
          hintmask 11010100
          -222 -57 callsubr
          hintmask 10110100
          648 -94 callgsubr
          hintmask 11010100
          320 callgsubr
          hintmask 10110100
          217 -94 callgsubr
          hintmask 11010100
          122 callgsubr
          hintmask 11001000
          354 186 callsubr
          endchar
        </CharString>
        <CharString name="I">
          -48 0 -47 callsubr
          endchar
        </CharString>
        <CharString name="I.s_v">
          118 callsubr
          hstem
          379 242 vstem
          245 hmoveto
          510 -87 callgsubr
          -134 296 134 -94 callsubr
          -510 -83 callsubr
          134 -296 -134 -65 callgsubr
          endchar
        </CharString>
        <CharString name="I.salt">
          256 callgsubr
          hstem
          70 231 vstem
          265 -23 callgsubr
          endchar
        </CharString>
        <CharString name="I.salt_s_v">
          0 680 164 callgsubr
          endchar
        </CharString>
        <CharString name="I.salt_v">
          0 720 296 callsubr
          579 -23 callgsubr
          endchar
        </CharString>
        <CharString name="I.v">
          14 callsubr
          hstem
          379 242 vstem
          245 hmoveto
          510 -87 callgsubr
          -134 336 134 -94 callsubr
          -510 -83 callsubr
          134 -336 -134 -65 callgsubr
          endchar
        </CharString>
        <CharString name="IJ">
          63 callgsubr
        </CharString>
        <CharString name="IJ.salt">
          380 -15 197 -182 387 -387 720 hstemhm
          70 231 85 217 137 229 hintmask 00111100
          265 -23 callgsubr
          hintmask 10011100
          863 189 rmoveto
          hintmask 00111100
          82 callsubr
          hintmask 10011100
          -455 vlineto
          -27 -8 -20 -58 -62 -9 20 27 vhcurveto
          hintmask 01011100
          122 -69 callgsubr
          -145 56 callgsubr
          -162 vlineto
          hintmask 10011100
          -122 57 -82 233 235 58 196 callsubr
          endchar
        </CharString>
        <CharString name="IJ.salt_v">
          -366 197 578 680 hstemhm
          201 217 -33 231 -44 229 hintmask 11010000
          580 409 -79 callgsubr
          80 callsubr
          -159 -53 callgsubr
          hintmask 11101000
          380 -571 2 callsubr
          endchar
        </CharString>
        <CharString name="IJ.stack">
          610 -15 197 -182 191 -191 152 callsubr
          188 230 198 217 137 229 hintmask 01011110
          89 hmoveto
          426 -99 callgsubr
          hintmask 10011110
          1110 189 rmoveto
          hintmask 00101110
          82 callsubr
          hintmask 10011110
          -455 vlineto
          -27 -8 -20 -58 -62 -9 -21 callgsubr
          57 -82 233 235 58 196 callsubr
          endchar
        </CharString>
        <CharString name="IJ.stack_v">
          -383 197 598 155 callgsubr
          hstemhm
          200 217 -38 242 -50 229 hintmask 11101000
          245 412 rmoveto
          510 -87 callgsubr
          -134 296 134 -94 callsubr
          -510 -83 callsubr
          134 -296 -134 -65 callgsubr
          hintmask 11110100
          555 -591 2 callsubr
          endchar
        </CharString>
        <CharString name="IJ.v">
          0 193 137 390 357 callgsubr
          391 330 -79 callgsubr
          318 -94 callgsubr
          -318 -104 callsubr
          -36 -294 335 callsubr
          351 hlineto
          132 81 78 132 hvcurveto
          474 -94 callgsubr
          -424 vlineto
          -48 -25 -19 -48 vhcurveto
          -264 -106 callsubr
          endchar
        </CharString>
        <CharString name="I_I.salt_v">
          0 720 357 callgsubr
          573 36 rmoveto
          -25 11 -11 25 vhcurveto
          155 hlineto
          25 11 11 25 hvcurveto
          648 -94 callgsubr
          -146 hmoveto
          25 -11 11 -25 vhcurveto
          127 callsubr
          155 158 callsubr
        </CharString>
        <CharString name="Iacute">
          72 callsubr
          hstemhm
          92 334 callsubr
          hintmask 11010000
          89 hmoveto
          426 -99 callgsubr
          hintmask 11100000
          386 796 -99 callsubr
          endchar
        </CharString>
        <CharString name="Iacute.salt">
          256 callgsubr
          hstemhm
          -8 389 -311 231 hintmask 11000000
          345 190 callgsubr
          -319 -43 rlineto
          -25 -3 -11 -8 -25 vvcurveto
          -96 vlineto
          -23 11 -13 23 3 vhcurveto
          hintmask 10100000
          239 -753 188 callgsubr
        </CharString>
        <CharString name="Iacute.salt_v">
          0 680 347 callsubr
          -325 231 hintmask 11000000
          673 -8 callsubr
          hintmask 10100000
          255 -713 rmoveto
          52 callsubr
        </CharString>
        <CharString name="Iacute.v">
          262 callsubr
          290 419 -330 242 hintmask 11010000
          245 hmoveto
          510 -87 callgsubr
          -134 296 134 -94 callsubr
          -510 -83 callsubr
          134 -296 -134 -65 callgsubr
          hintmask 11100000
          428 -8 callsubr
          endchar
        </CharString>
        <CharString name="Ibreve">
          72 callsubr
          323 callsubr
          85 161 -58 230 -56 157 hintmask 11101000
          89 hmoveto
          426 -99 callgsubr
          hintmask 11110100
          430 16 callgsubr
          endchar
        </CharString>
        <CharString name="Ibreve.salt">
          256 callgsubr
          323 callsubr
          -32 161 -59 231 -56 157 hintmask 11010000
          265 -23 callgsubr
          hintmask 11101000
          296 16 callgsubr
          endchar
        </CharString>
        <CharString name="Ibreve.salt_v">
          0 680 323 callsubr
          283 161 -60 231 -55 157 hintmask 11010000
          75 callgsubr
          hintmask 11101000
          297 857 -90 callgsubr
        </CharString>
        <CharString name="Ibreve.v">
          118 callsubr
          323 callsubr
          283 161 -65 242 -61 157 hintmask 11101000
          245 hmoveto
          510 -87 callgsubr
          -134 296 134 -94 callsubr
          -510 -83 callsubr
          134 -296 -134 -65 callgsubr
          hintmask 11110100
          472 857 -90 callgsubr
        </CharString>
        <CharString name="Icaron">
          72 callsubr
          257 callgsubr
          93 419 -324 230 hintmask 11101000
          89 hmoveto
          426 -99 callgsubr
          245 218 callsubr
          hintmask 11110000
          133 callsubr
          endchar
        </CharString>
        <CharString name="Icircumflex">
          18 callsubr
        </CharString>
        <CharString name="Icircumflex.salt">
          256 callgsubr
          81 176 hstem
          70 231 vstem
          265 -23 callgsubr
          48 42 callsubr
          endchar
        </CharString>
        <CharString name="Icircumflex.salt_v">
          0 680 81 176 164 callgsubr
          48 757 -91 callgsubr
        </CharString>
        <CharString name="Icircumflex.v">
          118 callsubr
          81 176 347 callsubr
          -330 242 hintmask 11101000
          245 hmoveto
          510 -87 callgsubr
          -134 296 134 -94 callsubr
          -510 -83 callsubr
          134 -296 -134 -65 callgsubr
          223 270 callsubr
          hintmask 11110000
          -86 callgsubr
        </CharString>
        <CharString name="Idieresis">
          72 callsubr
          40 187 hstemhm
          68 205 -85 230 -91 204 hintmask 11101000
          89 hmoveto
          426 -99 callgsubr
          hintmask 11110100
          409 760 -101 callsubr
          endchar
        </CharString>
        <CharString name="Idieresis.salt">
          256 callgsubr
          40 187 hstemhm
          -49 205 -86 231 -91 204 hintmask 11010000
          265 -23 callgsubr
          hintmask 11001000
          275 760 102 callgsubr
          endchar
        </CharString>
        <CharString name="Idieresis.salt_v">
          0 680 40 187 hstemhm
          266 205 -87 231 -90 204 hintmask 11001000
          696 720 102 callgsubr
          hintmask 11010000
          279 -720 rmoveto
          52 callsubr
        </CharString>
        <CharString name="Idieresis.v">
          118 callsubr
          40 187 hstemhm
          266 205 -92 242 -96 204 hintmask 11101000
          245 hmoveto
          510 -87 callgsubr
          -134 296 134 -94 callsubr
          -510 -83 callsubr
          134 -296 -134 -65 callgsubr
          hintmask 11110100
          451 -3 callsubr
          endchar
        </CharString>
        <CharString name="Idotaccent">
          72 callsubr
          40 199 -44 callgsubr
          293 760 -103 callsubr
          endchar
        </CharString>
        <CharString name="Idotaccent.salt">
          256 callgsubr
          40 199 hstem
          70 231 vstem
          265 -23 callgsubr
          158 760 -103 callsubr
          endchar
        </CharString>
        <CharString name="Idotaccent.salt_v">
          0 680 40 199 296 callsubr
          580 43 callgsubr
          157 -720 rmoveto
          52 callsubr
        </CharString>
        <CharString name="Idotaccent.v">
          118 callsubr
          40 199 hstemhm
          379 242 -235 230 hintmask 11110000
          245 hmoveto
          510 -87 callgsubr
          -134 296 134 -94 callsubr
          -510 -83 callsubr
          134 -296 -134 -65 callgsubr
          hintmask 11101000
          335 43 callgsubr
          endchar
        </CharString>
        <CharString name="Idotbelow">
          -48 95 callsubr
          -47 callsubr
          293 186 callsubr
          endchar
        </CharString>
        <CharString name="Igrave">
          72 callsubr
          hstemhm
          92 334 callsubr
          hintmask 11010000
          89 hmoveto
          426 -99 callgsubr
          hintmask 11100000
          388 753 -91 callsubr
          endchar
        </CharString>
        <CharString name="Igrave.salt">
          256 callgsubr
          hstemhm
          -10 389 -309 231 hintmask 11000000
          345 755 -66 callgsubr
          -319 39 rlineto
          -23 3 -11 -13 -23 vvcurveto
          -96 vlineto
          -25 11 -8 25 -3 vhcurveto
          hintmask 10100000
          239 -794 188 callgsubr
        </CharString>
        <CharString name="Igrave.salt_v">
          0 680 347 callsubr
          -325 231 hintmask 10100000
          75 callgsubr
          hintmask 11000000
          255 172 callgsubr
          endchar
        </CharString>
        <CharString name="Igrave.v">
          262 callsubr
          290 419 -330 242 hintmask 11010000
          245 hmoveto
          510 -87 callgsubr
          -134 296 134 -94 callsubr
          -510 -83 callsubr
          134 -296 -134 -65 callgsubr
          hintmask 11100000
          430 172 callgsubr
          endchar
        </CharString>
        <CharString name="Ihookabove">
          72 callsubr
          189 111 hstemhm
          188 230 -115 147 hintmask 11110000
          89 hmoveto
          426 -99 callgsubr
          hintmask 11101000
          280 767 -98 callgsubr
        </CharString>
        <CharString name="Imacron">
          72 callsubr
          40 165 hstemhm
          92 334 callsubr
          hintmask 11101000
          89 hmoveto
          426 -99 callgsubr
          hintmask 11110000
          386 194 callgsubr
          endchar
        </CharString>
        <CharString name="Imacron.salt">
          256 callgsubr
          40 165 hstem
          70 231 vstem
          265 -23 callgsubr
          253 194 callgsubr
          endchar
        </CharString>
        <CharString name="Imacron.salt_v">
          0 680 40 165 164 callgsubr
          253 720 -90 callsubr
          endchar
        </CharString>
        <CharString name="Imacron.v">
          118 callsubr
          40 165 347 callsubr
          -330 242 hintmask 11101000
          245 hmoveto
          510 -87 callgsubr
          -134 296 134 -94 callsubr
          -510 -83 callsubr
          134 -296 -134 274 callsubr
          428 720 -90 callsubr
          endchar
        </CharString>
        <CharString name="Iogonek">
          -48 301 callgsubr
          46 55 callsubr
          hstemhm
          188 230 -115 248 hintmask 11110000
          551 191 callsubr
          hintmask 11101000
          321 callsubr
          hintmask 11110000
          34 -99 callgsubr
          226 149 callsubr
        </CharString>
        <CharString name="Iogonek.salt">
          -282 301 callgsubr
          46 720 -699 -21 hstemhm
          70 231 hintmask 10110000
          297 191 callsubr
          321 callsubr
          38 -101 callgsubr
          hintmask 11010000
          199 callgsubr
          -634 231 callgsubr
        </CharString>
        <CharString name="Iogonek.salt_v">
          301 callgsubr
          46 680 -659 -21 hstemhm
          384 231 hintmask 10110000
          611 191 callsubr
          321 callsubr
          38 -101 callgsubr
          hintmask 11010000
          80 callsubr
          185 callgsubr
          -594 231 callgsubr
        </CharString>
        <CharString name="Iogonek.v">
          -146 140 46 155 callgsubr
          hstemhm
          379 242 -78 248 hintmask 11110000
          791 -112 203 callgsubr
          hintmask 11101000
          321 callsubr
          hintmask 11110000
          34 -87 callgsubr
          -134 296 134 -94 callsubr
          -510 -83 callsubr
          134 -296 -134 -65 callgsubr
          310 149 callsubr
        </CharString>
        <CharString name="Itilde">
          72 callsubr
          140 callgsubr
          92 418 -322 230 hintmask 11100100
          89 hmoveto
          426 -99 callgsubr
          212 330 callgsubr
          hintmask 11101000
          80 -12 14 -2 63 19 rrcurveto
          -84 callsubr
          hintmask 11011000
          -95 callgsubr
          endchar
        </CharString>
        <CharString name="Itilde.salt">
          256 callgsubr
          140 callgsubr
          70 231 hintmask 11010000
          265 -23 callgsubr
          79 764 -74 callgsubr
          hintmask 10110000
          -95 callgsubr
          endchar
        </CharString>
        <CharString name="Itilde.salt_v">
          0 680 140 callgsubr
          384 231 hintmask 11010000
          171 callsubr
          hintmask 10110000
          -95 callgsubr
          108 -728 rmoveto
          52 callsubr
        </CharString>
        <CharString name="Itilde.v">
          118 callsubr
          140 callgsubr
          290 418 -329 242 hintmask 11100100
          245 hmoveto
          510 -87 callgsubr
          -134 296 134 -94 callsubr
          -510 -83 callsubr
          134 -296 -134 -65 callgsubr
          254 724 rmoveto
          16 -2 rlineto
          hintmask 11101000
          80 -12 14 -2 63 19 rrcurveto
          -84 callsubr
          hintmask 11011000
          -95 callgsubr
          endchar
        </CharString>
        <CharString name="J">
          35 -15 197 -44 callsubr
          endchar
        </CharString>
        <CharString name="J.s_v">
          -15 197 hstem
          200 217 154 229 vstem
          800 189 2 callsubr
          endchar
        </CharString>
        <CharString name="J.v">
          -16 198 hstem
          200 217 154 229 vstem
          800 189 rmoveto
          495 vlineto
          25 -11 11 -25 vhcurveto
          -157 hlineto
          -25 -11 -11 -25 hvcurveto
          -455 44 callgsubr
          -83 241 243 60 83 122 vhcurveto
          endchar
        </CharString>
        <CharString name="Jcircumflex">
          35 -15 197 619 176 -44 callsubr
          -154 608 -91 callgsubr
        </CharString>
        <CharString name="Jcircumflex.v">
          -15 197 579 176 hstemhm
          200 217 -37 419 -228 229 hintmask 11101000
          800 189 2 callsubr
          -242 568 -62 callsubr
          rrcurveto
          hintmask 11010000
          -86 callgsubr
        </CharString>
        <CharString name="K">
          -33 callsubr
        </CharString>
        <CharString name="K.s_v">
          0 434 -434 680 -435 435 176 callgsubr
          147 226 hintmask 01011000
          318 callgsubr
          hintmask 00111000
          361 callsubr
          hintmask 01011000
          -175 39 callgsubr
          262 vlineto
          hintmask 10011000
          221 callsubr
          hintmask 01011000
          102 213 rlineto
          21 9 -8 12 -23 hhcurveto
          -154 hlineto
          -26 -14 -9 -24 -10 hvcurveto
          hintmask 10011000
          -103 -213 rlineto
          -23 hlineto
          hintmask 01011000
          210 157 callgsubr
          endchar
        </CharString>
        <CharString name="K.v">
          0 454 -454 720 -455 455 345 callsubr
          147 226 hintmask 01011000
          392 -80 callsubr
          hintmask 00111000
          229 115 259 callgsubr
          79 callsubr
          hintmask 10011000
          221 callsubr
          hintmask 01011000
          102 233 rlineto
          21 9 -8 12 -23 hhcurveto
          -154 hlineto
          -26 -14 -9 -24 -10 hvcurveto
          hintmask 10011000
          -103 -233 rlineto
          -23 hlineto
          hintmask 01011000
          217 callsubr
          endchar
        </CharString>
        <CharString name="Kcommaaccent">
          -5 callsubr
        </CharString>
        <CharString name="Kcommaaccent.v">
          229 callsubr
          680 -435 189 176 callgsubr
          -42 232 -43 226 hintmask 11101010
          391 291 callsubr
          361 callsubr
          -175 39 callgsubr
          262 vlineto
          hintmask 11011010
          221 callsubr
          hintmask 11101010
          102 213 rlineto
          21 9 -8 12 -23 hhcurveto
          -154 hlineto
          -26 -14 -9 -24 -10 hvcurveto
          hintmask 11011010
          -103 -213 rlineto
          -23 hlineto
          hintmask 11101010
          210 157 callgsubr
          256 -330 rmoveto
          hintmask 11100100
          -60 callgsubr
        </CharString>
        <CharString name="L">
          -16 callgsubr
          endchar
        </CharString>
        <CharString name="L.s_v">
          0 143 callsubr
          377 176 callgsubr
          156 362 callgsubr
          764 109 callsubr
          305 -53 callsubr
          hintmask 10110000
          131 callsubr
          endchar
        </CharString>
        <CharString name="L.salt">
          -38 0 193 hstem
          69 227 vstem
          0 callsubr
          endchar
        </CharString>
        <CharString name="L.salt_s_v">
          0 191 hstem
          306 callsubr
          vstem
          392 680 40 callgsubr
          endchar
        </CharString>
        <CharString name="L.salt_v">
          0 193 hstem
          306 callsubr
          vstem
          392 720 rmoveto
          127 callsubr
          518 -94 callsubr
          -327 491 104 callgsubr
          endchar
        </CharString>
        <CharString name="L.v">
          260 callsubr
          201 227 156 362 callgsubr
          765 86 callgsubr
          -156 495 150 callgsubr
        </CharString>
        <CharString name="Lacute">
          -16 callgsubr
          347 796 -99 callsubr
          endchar
        </CharString>
        <CharString name="Lacute.salt">
          -38 0 193 hstem
          69 227 vstem
          0 callsubr
          192 76 -99 callsubr
          endchar
        </CharString>
        <CharString name="Lacute.salt_v">
          0 191 hstemhm
          200 419 -418 227 hintmask 10100000
          392 680 40 callgsubr
          hintmask 11000000
          191 76 -99 callsubr
          endchar
        </CharString>
        <CharString name="Lacute.v">
          0 143 callsubr
          377 176 callgsubr
          156 362 callgsubr
          764 109 callsubr
          305 -53 callsubr
          hintmask 10110000
          131 callsubr
          347 -8 callsubr
          endchar
        </CharString>
        <CharString name="Lcaron">
          317 callgsubr
          65 268 263 callsubr
          hintmask 10111000
          121 callsubr
          hintmask 01111000
          315 -53 callsubr
          hintmask 10111000
          -162 -137 495 vlineto
          25 -11 11 -25 vhcurveto
          127 callsubr
          455 452 3 callsubr
        </CharString>
        <CharString name="Lcaron.salt">
          -38 0 193 259 268 hstem
          69 227 vstem
          0 callsubr
          270 -268 3 callsubr
        </CharString>
        <CharString name="Lcaron.salt_v">
          0 193 -193 720 -268 268 345 callsubr
          hintmask 01010000
          392 720 211 callgsubr
          hintmask 10110000
          122 callgsubr
          518 -94 callsubr
          -327 hlineto
          hintmask 01010000
          491 -107 callgsubr
          hintmask 10110000
          343 -268 3 callsubr
        </CharString>
        <CharString name="Lcaron.v">
          0 170 callsubr
          -387 720 -268 268 345 callsubr
          156 217 hintmask 10011100
          765 -80 callsubr
          hintmask 01011100
          315 -53 callsubr
          hintmask 10011100
          -162 -156 vlineto
          hintmask 00101100
          495 -94 callgsubr
          hintmask 10011100
          122 callgsubr
          498 452 3 callsubr
        </CharString>
        <CharString name="Lcommaaccent">
          42 96 callsubr
          164 callsubr
          -48 232 -47 217 hintmask 11101010
          121 callsubr
          hintmask 11011010
          315 -53 callsubr
          hintmask 11101010
          -162 -137 495 vlineto
          25 -11 11 -25 vhcurveto
          127 callsubr
          250 -362 rmoveto
          hintmask 11100100
          -82 callsubr
        </CharString>
        <CharString name="Lcommaaccent.salt">
          -38 96 callsubr
          193 171 callgsubr
          -78 232 hintmask 11110000
          0 callsubr
          65 -1082 rmoveto
          hintmask 11101000
          -82 callsubr
        </CharString>
        <CharString name="Lcommaaccent.salt_v">
          229 callsubr
          191 345 callsubr
          -43 232 hintmask 11110000
          392 720 40 callgsubr
          100 -1010 rmoveto
          hintmask 11101000
          -60 callgsubr
        </CharString>
        <CharString name="Lcommaaccent.v">
          229 callsubr
          189 176 callgsubr
          -42 232 -34 217 hintmask 11110100
          764 291 callsubr
          305 -53 callsubr
          131 callsubr
          256 -330 rmoveto
          hintmask 11101000
          -60 callgsubr
        </CharString>
        <CharString name="Ldot">
          45 callgsubr
        </CharString>
        <CharString name="Ldot.salt">
          -38 0 193 137 199 hstem
          69 227 80 230 vstem
          0 callsubr
          310 -390 -103 callsubr
          endchar
        </CharString>
        <CharString name="Ldot.salt_v">
          -220 199 61 191 345 callsubr
          -26 230 hintmask 11100000
          392 720 40 callgsubr
          hintmask 11010000
          204 -940 -103 callsubr
          endchar
        </CharString>
        <CharString name="Ldot.v">
          -220 199 61 189 176 callgsubr
          -25 230 -49 217 hintmask 11101000
          764 291 callsubr
          305 -53 callsubr
          131 callsubr
          hintmask 11010000
          360 -260 -103 callsubr
          endchar
        </CharString>
        <CharString name="Ldotbelow">
          42 95 callsubr
          164 callsubr
          -48 230 -45 217 hintmask 11010100
          121 callsubr
          hintmask 10110100
          315 -53 callsubr
          hintmask 11010100
          -162 -137 495 vlineto
          25 -11 11 -25 vhcurveto
          127 callsubr
          hintmask 11001000
          177 callgsubr
          endchar
        </CharString>
        <CharString name="Ldotbelowmacron">
          15 callsubr
        </CharString>
        <CharString name="Llinebelow">
          42 272 callgsubr
          164 callsubr
          -158 419 -124 217 hintmask 11010100
          121 callsubr
          hintmask 10110100
          315 -53 callsubr
          hintmask 11010100
          -162 -137 495 vlineto
          25 -11 11 -25 vhcurveto
          127 callsubr
          hintmask 11001000
          416 -205 -90 callsubr
          endchar
        </CharString>
        <CharString name="Lslash">
          52 260 callsubr
          79 227 137 362 callgsubr
          624 193 callsubr
          137 vlineto
          30 callsubr
        </CharString>
        <CharString name="Lslash.salt">
          -28 0 193 hstem
          79 227 vstem
          561 hmoveto
          -92 callgsubr
          -255 133 hlineto
          30 callsubr
        </CharString>
        <CharString name="Lslash.salt_v">
          0 193 hstem
          306 callsubr
          vstem
          755 hmoveto
          -92 callgsubr
          -327 131 hlineto
          58 9 rlineto
          25 4 11 6 26 vvcurveto
          107 vlineto
          26 -11 14 -25 -4 vhcurveto
          -58 -9 rlineto
          181 -94 callgsubr
          -218 vlineto
          -23 -4 rlineto
          -25 -4 -11 -7 -25 vvcurveto
          -107 vlineto
          -26 11 -14 25 4 vhcurveto
          23 4 rlineto
          -251 140 callsubr
        </CharString>
        <CharString name="Lslash.v">
          260 callsubr
          201 227 156 362 callgsubr
          765 86 callgsubr
          -156 135 vlineto
          58 9 rlineto
          25 4 11 6 26 vvcurveto
          107 vlineto
          26 -11 14 -25 -4 vhcurveto
          -58 -9 rlineto
          181 -94 callgsubr
          -218 vlineto
          -23 -4 rlineto
          -25 -4 -11 -7 -25 vvcurveto
          -107 vlineto
          -26 11 -14 25 4 vhcurveto
          23 4 rlineto
          -251 140 callsubr
        </CharString>
        <CharString name="M">
          26 callsubr
        </CharString>
        <CharString name="M.salt">
          417 339 callsubr
          135 334 callgsubr
          hintmask 10111000
          288 36 rmoveto
          hintmask 01111000
          456 vlineto
          27 10 20 58 57 10 -20 -27 vhcurveto
          hintmask 10111000
          -456 -25 callsubr
          hintmask 01111000
          456 vlineto
          27 10 20 57 58 10 -20 -27 vhcurveto
          hintmask 10111000
          -456 vlineto
          -25 10 -11 26 vhcurveto
          152 340 callsubr
          -52 82 -212 -102 -65 -19 -33 -40 vhcurveto
          33 -40 -65 19 -102 hhcurveto
          -212 -52 -82 -122 hvcurveto
          -495 17 callgsubr
          endchar
        </CharString>
        <CharString name="M.salt_v">
          0 735 -196 196 hstemhm
          151 189 65 299 callgsubr
          hintmask 10111000
          340 36 rmoveto
          hintmask 01111000
          463 vlineto
          27 7 13 26 26 6 -13 -27 vhcurveto
          hintmask 10111000
          -463 -104 callsubr
          117 -101 callgsubr
          hintmask 01111000
          463 vlineto
          27 6 13 26 26 7 -13 -27 vhcurveto
          hintmask 10111000
          -463 11 callgsubr
          117 340 callsubr
          -48 82 -151 -75 -47 -18 -32 -28 vhcurveto
          32 -27 -47 18 -75 hhcurveto
          -151 -48 -82 -122 hvcurveto
          -495 -104 callsubr
          117 249 callgsubr
        </CharString>
        <CharString name="M.v">
          0 720 -491 491 hstemhm
          179 207 210 223 hintmask 10110000
          347 -80 callsubr
          3 293 rlineto
          42 vlineto
          hintmask 01110000
          39 -110 rlineto
          -23 13 14 -9 26 hhcurveto
          27 hlineto
          26 14 9 23 13 hvcurveto
          38 110 rlineto
          -42 vlineto
          hintmask 10110000
          4 -293 rlineto
          -102 callsubr
          151 221 callgsubr
          -4 648 rlineto
          115 callgsubr
          -140 hlineto
          -26 -16 -8 -22 -14 hvcurveto
          hintmask 01110000
          -78 -176 rlineto
          -24 hlineto
          hintmask 10110000
          -70 176 rlineto
          23 -13 -26 7 -26 hhcurveto
          -131 -106 callsubr
          -4 -648 rlineto
          -102 callsubr
          endchar
        </CharString>
        <CharString name="Mdotbelow">
          1 callsubr
        </CharString>
        <CharString name="N">
          100 0 720 hstem
          291 callgsubr
          vstem
          -96 callsubr
          endchar
        </CharString>
        <CharString name="N.s_v">
          0 680 hstem
          200 222 157 222 vstem
          386 hmoveto
          -41 callgsubr
          endchar
        </CharString>
        <CharString name="N.salt">
          93 339 callsubr
          165 229 hintmask 10110000
          64 531 rmoveto
          -495 17 callgsubr
          hintmask 01110000
          124 callgsubr
          hintmask 10110000
          43 callsubr
          endchar
        </CharString>
        <CharString name="N.salt_s_v">
          0 695 -196 252 callgsubr
          hintmask 10110000
          200 491 rmoveto
          -455 17 callgsubr
          hintmask 01110000
          416 147 callsubr
          hintmask 10110000
          74 callsubr
          endchar
        </CharString>
        <CharString name="N.salt_v">
          0 736 -196 252 callgsubr
          hintmask 10110000
          200 532 rmoveto
          -495 vlineto
          -25 11 -12 25 vhcurveto
          152 hlineto
          26 10 12 25 hvcurveto
          hintmask 01110000
          456 147 callsubr
          hintmask 10110000
          -456 vlineto
          -25 11 -12 25 vhcurveto
          157 hlineto
          25 11 12 25 hvcurveto
          495 vlineto
          122 -52 322 callgsubr
          -52 -82 -122 vhcurveto
          endchar
        </CharString>
        <CharString name="N.v">
          0 720 hstem
          200 222 157 222 vstem
          386 -80 callsubr
          330 vlineto
          157 -207 rlineto
          -123 vlineto
          -25 11 -11 25 vhcurveto
          150 hlineto
          25 11 11 25 hvcurveto
          648 -35 callsubr
          -180 -56 callsubr
          endchar
        </CharString>
        <CharString name="Nacute">
          100 0 331 callsubr
          -115 419 -133 222 hintmask 11010000
          -96 callsubr
          454 190 callgsubr
          hintmask 10100000
          134 callgsubr
        </CharString>
        <CharString name="Nacute.salt">
          93 339 callsubr
          -115 419 -139 229 hintmask 10101000
          64 531 rmoveto
          -495 17 callgsubr
          hintmask 01101000
          124 callgsubr
          hintmask 10101000
          43 callsubr
          hintmask 10010000
          492 265 -99 callsubr
          endchar
        </CharString>
        <CharString name="Nacute.salt_v">
          0 695 -196 196 210 callsubr
          -138 229 hintmask 10010000
          673 -8 callsubr
          hintmask 10101000
          -124 -222 rmoveto
          -455 17 callgsubr
          hintmask 01101000
          416 147 callsubr
          hintmask 10101000
          74 callsubr
          endchar
        </CharString>
        <CharString name="Nacute.v">
          0 680 310 callsubr
          hintmask 11010000
          386 hmoveto
          -41 callgsubr
          437 756 -82 callgsubr
          hintmask 10100000
          134 callgsubr
        </CharString>
        <CharString name="Ncaron">
          100 0 720 -720 977 -225 175 301 callsubr
          -135 419 -113 222 hintmask 10110100
          -96 callsubr
          292 932 32 callgsubr
        </CharString>
        <CharString name="Ncaron.salt">
          93 0 735 -735 977 -438 196 17 175 hstemhm
          64 224 -125 419 -129 229 hintmask 10001010
          64 531 rmoveto
          -495 17 callgsubr
          hintmask 00101010
          124 callgsubr
          hintmask 10001010
          43 callsubr
          hintmask 10011010
          340 401 101 callsubr
          endchar
        </CharString>
        <CharString name="Ncaron.salt_v">
          0 695 -695 937 -438 196 17 175 210 callsubr
          -138 229 hintmask 10011010
          531 892 101 callsubr
          hintmask 10001010
          -468 -441 rmoveto
          -455 17 callgsubr
          hintmask 00101010
          416 147 callsubr
          hintmask 10001010
          74 callsubr
          endchar
        </CharString>
        <CharString name="Ncaron.v">
          0 680 -680 937 -225 175 310 callsubr
          hintmask 10110100
          386 hmoveto
          -41 callgsubr
          295 892 32 callgsubr
        </CharString>
        <CharString name="Ncommaaccent">
          100 96 callsubr
          331 callsubr
          -31 232 -30 222 hintmask 11110100
          -96 callsubr
          262 -362 rmoveto
          hintmask 11101000
          -82 callsubr
        </CharString>
        <CharString name="Ncommaaccent.salt">
          93 96 callsubr
          271 callsubr
          -31 232 -36 229 hintmask 11101010
          64 531 rmoveto
          -495 17 callgsubr
          hintmask 11011010
          124 callgsubr
          hintmask 11101010
          43 callsubr
          300 -893 rmoveto
          hintmask 11100100
          -82 callsubr
        </CharString>
        <CharString name="Ncommaaccent.salt_v">
          -190 85 37 158 439 289 callgsubr
          -39 232 -46 229 hintmask 11110100
          200 521 rmoveto
          -365 17 callgsubr
          326 147 callsubr
          -326 139 callsubr
          -101 callgsubr
          365 vlineto
          122 -52 322 callgsubr
          -52 -82 -122 vhcurveto
          292 -711 rmoveto
          76 49 42 86 hvcurveto
          112 vlineto
          31 -9 9 -28 vhcurveto
          hintmask 11101000
          -158 hlineto
          -28 -9 -9 -31 hvcurveto
          -79 55 callgsubr
          -24 vlineto
          -22 9 -9 21 vhcurveto
          endchar
        </CharString>
        <CharString name="Ncommaaccent.v">
          229 callsubr
          680 hstemhm
          200 222 -37 232 -38 222 hintmask 11110100
          386 40 rmoveto
          -41 callgsubr
          256 -330 rmoveto
          hintmask 11101000
          -60 callgsubr
        </CharString>
        <CharString name="Ndotaccent">
          100 0 720 40 199 301 callsubr
          -29 230 -30 222 hintmask 11101000
          -96 callsubr
          hintmask 11010000
          351 760 -103 callsubr
          endchar
        </CharString>
        <CharString name="Ndotbelow">
          100 95 callsubr
          331 callsubr
          -29 230 -30 222 hintmask 11101000
          -96 callsubr
          hintmask 11010000
          351 186 callsubr
          endchar
        </CharString>
        <CharString name="Nlinebelow">
          100 272 callgsubr
          720 hstem
          291 callgsubr
          vstem
          -96 callsubr
          445 -205 -90 callsubr
          endchar
        </CharString>
        <CharString name="Ntilde">
          100 0 720 140 callgsubr
          69 222 -125 418 -122 222 hintmask 11010100
          -96 callsubr
          270 764 -74 callgsubr
          hintmask 10101000
          -95 callgsubr
          endchar
        </CharString>
        <CharString name="Ntilde.salt">
          93 0 735 -196 196 225 callsubr
          64 224 -125 418 -128 229 hintmask 10011010
          64 531 rmoveto
          -495 17 callgsubr
          hintmask 01011010
          124 callgsubr
          hintmask 10011010
          43 callsubr
          hintmask 10100100
          308 98 callgsubr
        </CharString>
        <CharString name="Ntilde.salt_v">
          0 695 -196 196 225 callsubr
          200 224 -134 418 -137 229 hintmask 10011010
          200 491 rmoveto
          -455 17 callgsubr
          hintmask 01011010
          416 147 callsubr
          hintmask 10011010
          74 callsubr
          hintmask 10100100
          299 98 callgsubr
        </CharString>
        <CharString name="Ntilde.v">
          0 680 140 callgsubr
          200 222 -132 418 -129 222 hintmask 11010100
          386 hmoveto
          -41 callgsubr
          263 179 callsubr
          hintmask 10101000
          -95 callgsubr
          endchar
        </CharString>
        <CharString name="O">
          46 callsubr
          hstem
          58 227 168 226 vstem
          -95 callsubr
          endchar
        </CharString>
        <CharString name="O.s_v">
          175 callsubr
          hstem
          196 227 155 226 vstem
          -4 callgsubr
          endchar
        </CharString>
        <CharString name="O.v">
          5 callgsubr
          hstem
          196 227 155 226 vstem
          804 189 rmoveto
          341 vlineto
          80 callgsubr
          -341 175 callgsubr
          293 callgsubr
          vhcurveto
          -381 36 rmoveto
          269 vlineto
          26 11 20 66 67 11 -20 -26 vhcurveto
          -269 328 callsubr
        </CharString>
        <CharString name="OE">
          38 callgsubr
        </CharString>
        <CharString name="OE.v">
          192 callgsubr
          179 203 98 202 vstem
          425 hmoveto
          360 -85 callsubr
          -103 86 102 -39 callgsubr
          -39 callsubr
          vhcurveto
          -102 77 103 -85 callsubr
          -360 hlineto
          -189 -57 -83 -121 hvcurveto
          -312 -28 callgsubr
          55 189 rmoveto
          -51 hlineto
          -40 -7 22 27 hvcurveto
          243 vlineto
          26 7 22 40 vhcurveto
          51 hlineto
          endchar
        </CharString>
        <CharString name="Oacute">
          46 callsubr
          78 callsubr
          hintmask 11101000
          -95 callsubr
          hintmask 11010000
          256 571 -99 callsubr
          endchar
        </CharString>
        <CharString name="Oacute.v">
          175 callsubr
          180 callsubr
          hintmask 11101000
          -4 callgsubr
          hintmask 11010000
          250 531 -99 callsubr
          endchar
        </CharString>
        <CharString name="Obreve">
          46 callsubr
          19 223 136 callgsubr
          -134 161 116 157 -132 -27 callsubr
          300 672 -90 callgsubr
        </CharString>
        <CharString name="Obreve.v">
          175 callsubr
          19 223 hstemhm
          196 227 -140 87 callsubr
          -139 226 hintmask 10110010
          226 callsubr
          hintmask 11110010
          13 callgsubr
          vhcurveto
          hintmask 10110010
          173 callsubr
          hintmask 11110010
          32 callsubr
          vhcurveto
          hintmask 10110010
          -66 -11 20 27 hvcurveto
          hintmask 10101100
          294 632 -90 callgsubr
        </CharString>
        <CharString name="Ocaron">
          46 callsubr
          17 175 78 callsubr
          hintmask 11010100
          -95 callsubr
          hintmask 11101000
          114 707 rmoveto
          -23 -6 -16 0 -23 6 -137 40 rcurveline
          -98 callsubr
          endchar
        </CharString>
        <CharString name="Ocircumflex">
          136 callsubr
          -124 297 callsubr
          -95 callsubr
          51 572 -31 callsubr
        </CharString>
        <CharString name="Ocircumflex.v">
          175 callsubr
          66 176 180 callsubr
          hintmask 11110100
          -4 callgsubr
          45 532 -31 callsubr
        </CharString>
        <CharString name="Ocircumflexacute">
          136 callsubr
          -167 207 -164 226 hintmask 11110010
          -95 callsubr
          51 572 -62 callsubr
          rrcurveto
          hintmask 11101000
          137 -40 rlineto
          -107 callsubr
          hintmask 11110100
          384 445 -54 callgsubr
        </CharString>
        <CharString name="Ocircumflexdotbelow">
          -8 callgsubr
        </CharString>
        <CharString name="Ocircumflexgrave">
          136 callsubr
          -187 207 -144 226 hintmask 11110010
          -95 callsubr
          51 572 -62 callsubr
          rrcurveto
          hintmask 11101000
          137 -40 rlineto
          -107 callsubr
          hintmask 11110100
          225 420 -57 callgsubr
        </CharString>
        <CharString name="Ocircumflexhookabove">
          209 callgsubr
          156 111 78 callsubr
          -124 147 hintmask 11111010
          -95 callsubr
          51 572 -62 callsubr
          rrcurveto
          hintmask 11110100
          137 -40 rlineto
          -107 callsubr
          hintmask 11111001
          422 234 -98 callgsubr
        </CharString>
        <CharString name="Ocircumflextilde">
          209 callgsubr
          26 350 callgsubr
          -127 418 -123 226 hintmask 11010101
          -95 callsubr
          hintmask 11110010
          51 572 -52 callgsubr
          hintmask 11010010
          168 257 -74 callgsubr
          hintmask 11001010
          -95 callgsubr
          endchar
        </CharString>
        <CharString name="Odieresis">
          46 callsubr
          25 187 136 callgsubr
          -151 216 callsubr
          -144 -27 callsubr
          279 535 -101 callsubr
          endchar
        </CharString>
        <CharString name="Odieresis.v">
          175 callsubr
          25 187 hstemhm
          196 227 -157 216 callsubr
          -151 226 hintmask 10110010
          226 callsubr
          hintmask 11110010
          13 callgsubr
          vhcurveto
          hintmask 10110010
          173 callsubr
          hintmask 11110010
          32 callsubr
          vhcurveto
          hintmask 10110010
          -66 -11 20 27 hvcurveto
          hintmask 10101100
          273 495 -101 callsubr
          endchar
        </CharString>
        <CharString name="Odotbelow">
          36 callgsubr
        </CharString>
        <CharString name="Ograve">
          46 callsubr
          78 callsubr
          hintmask 11101000
          -95 callsubr
          hintmask 11010000
          258 528 -91 callsubr
          endchar
        </CharString>
        <CharString name="Ograve.v">
          175 callsubr
          180 callsubr
          hintmask 11101000
          -4 callgsubr
          hintmask 11010000
          252 488 -91 callsubr
          endchar
        </CharString>
        <CharString name="Ohookabove">
          46 callsubr
          174 336 callgsubr
          88 147 -67 297 callsubr
          -95 callsubr
          hintmask 11111000
          154 542 -98 callgsubr
        </CharString>
        <CharString name="Ohorn">
          94 5 callgsubr
          136 callgsubr
          168 226 -119 177 hintmask 11110000
          -7 callgsubr
          hintmask 11101000
          -58 callgsubr
          hintmask 11110000
          10 callgsubr
          endchar
        </CharString>
        <CharString name="Ohornacute">
          94 5 callgsubr
          136 callgsubr
          -165 419 -86 -51 callsubr
          218 571 -99 callsubr
          endchar
        </CharString>
        <CharString name="Ohorndotbelow">
          7 callsubr
        </CharString>
        <CharString name="Ohorngrave">
          94 5 callgsubr
          136 callgsubr
          -175 419 -76 -51 callsubr
          210 538 -91 callsubr
          endchar
        </CharString>
        <CharString name="Ohornhookabove">
          -11 callsubr
        </CharString>
        <CharString name="Ohorntilde">
          -18 callsubr
        </CharString>
        <CharString name="Ohungarumlaut">
          46 callsubr
          25 277 136 callgsubr
          168 226 hintmask 10111000
          100 callgsubr
          hintmask 11111000
          122 -60 83 -250 -250 -61 288 callsubr
          61 -82 250 vhcurveto
          hintmask 10111000
          117 callgsubr
          hintmask 11111000
          -84 callgsubr
          vhcurveto
          hintmask 10111000
          280 callgsubr
          hvcurveto
          123 569 -69 callsubr
        </CharString>
        <CharString name="Ohungarumlaut.v">
          175 callsubr
          25 277 hstemhm
          196 227 155 226 hintmask 10111000
          226 callsubr
          hintmask 11111000
          13 callgsubr
          vhcurveto
          hintmask 10111000
          173 callsubr
          hintmask 11111000
          32 callsubr
          vhcurveto
          hintmask 10111000
          -66 -11 20 27 hvcurveto
          120 529 -69 callsubr
        </CharString>
        <CharString name="Omacron">
          28 callsubr
        </CharString>
        <CharString name="Omacron.v">
          175 callsubr
          25 165 180 callsubr
          hintmask 10110100
          226 callsubr
          hintmask 11110100
          13 callgsubr
          vhcurveto
          hintmask 10110100
          173 callsubr
          hintmask 11110100
          32 callsubr
          vhcurveto
          hintmask 10110100
          -66 -11 20 27 hvcurveto
          hintmask 10101000
          250 495 -90 callsubr
          endchar
        </CharString>
        <CharString name="Omega">
          25 callsubr
        </CharString>
        <CharString name="Oslash">
          23 callgsubr
        </CharString>
        <CharString name="Oslash.v">
          -15 183 382 185 hstem
          199 207 188 206 vstem
          406 494 rmoveto
          32 14 24 80 vhcurveto
          11 0 0 1 hhcurveto
          -106 -250 rlineto
          94 -132 rmoveto
          -11 -2 0 -1 hhcurveto
          108 255 rlineto
          -198 vlineto
          -33 -13 -24 -81 vhcurveto
          -74 -202 rmoveto
          9 21 rlineto
          -1 20 22 -1 23 hhcurveto
          240 60 217 callgsubr
          341 vlineto
          65 -17 54 -52 36 vhcurveto
          29 69 rlineto
          22 12 -13 14 -25 hhcurveto
          -115 hlineto
          -25 -9 -14 -22 -12 hvcurveto
          -9 -21 rlineto
          1 -20 -21 1 -23 hhcurveto
          -240 -61 -83 -122 hvcurveto
          -341 vlineto
          -65 17 -53 52 -36 vhcurveto
          -29 -69 rlineto
          -22 -12 13 -14 25 hhcurveto
          115 hlineto
          25 9 14 22 12 hvcurveto
          endchar
        </CharString>
        <CharString name="Otilde">
          4 callsubr
        </CharString>
        <CharString name="Otilde.v">
          175 callsubr
          225 callsubr
          196 227 -133 418 -130 226 hintmask 10101010
          226 callsubr
          hintmask 11101010
          13 callgsubr
          vhcurveto
          hintmask 10101010
          173 callsubr
          hintmask 11101010
          32 callsubr
          vhcurveto
          hintmask 10101010
          -66 -11 20 27 hvcurveto
          76 499 -37 callgsubr
        </CharString>
        <CharString name="P">
          69 callgsubr
        </CharString>
        <CharString name="P.v">
          21 -21 202 180 151 187 hstem
          200 227 161 216 vstem
          318 callgsubr
          166 141 vlineto
          182 54 79 116 hvcurveto
          128 vlineto
          211 callsubr
          -332 -97 callgsubr
          189 533 rmoveto
          116 hlineto
          39 8 -23 -26 hvcurveto
          -53 vlineto
          -26 -8 -23 -39 vhcurveto
          -116 hlineto
          endchar
        </CharString>
        <CharString name="Q">
          51 callsubr
        </CharString>
        <CharString name="Q.v">
          -90 263 -151 -21 538 196 hstemhm
          196 227 -37 226 -34 226 hintmask 10101000
          576 -90 -79 callgsubr
          hintmask 01101000
          55 vlineto
          hintmask 01110100
          152 23 40 73 101 vvcurveto
          332 vlineto
          80 callgsubr
          -332 vlineto
          hintmask 10110100
          -100 40 -73 150 -23 vhcurveto
          hintmask 10101000
          -56 316 callgsubr
          1 310 rmoveto
          273 vlineto
          26 11 20 66 67 308 callsubr
          -273 328 callsubr
        </CharString>
</ttFont>
